 <!DOCTYPE svg PUBLIC "-//W3C//DTD SVG 1.1//EN" "http://www.w3.org/Graphics/SVG/1.1/DTD/svg11.dtd">
<svg xmlns="http://www.w3.org/2000/svg" width="865.76" height="682.89" viewBox="0 0 865.76 682.89">
  <defs>
<style xmlns="http://www.w3.org/1999/xhtml">*, ::after, ::before { box-sizing: border-box; }
img, svg { vertical-align: middle; }
</style>
<style xmlns="http://www.w3.org/1999/xhtml">*, body, html { -webkit-font-smoothing: antialiased; }
img, svg { max-width: 100%; }
</style>
</defs>
<path d="M699.58,430.4l-83,29a44.62,44.62,0,0,0,12.63,10.75c4.1-7,8.37-5.46,8.37-5.46,6.65,1.88-3.42,9.05-3.42,9.05,17.41,9.56,31.75,9.73,31.75,9.73-9.39-15.19-5.8-18.78-5.8-18.78,5.29-1.71,14.51,16.9,14.51,16.9C720.41,476.32,699.58,430.4,699.58,430.4Zm-6.07,35c-2.68,1.17-6.64-2-8.85-7s-1.83-10.1.85-11.27,6.64,2,8.85,7S696.19,464.24,693.51,465.41Z" fill="#7867e4" data-primary="true"/>
  <path d="M666.86,484H666c-.15,0-14.67-.28-32-9.79l-.7-.39.65-.46c1.64-1.17,5.82-4.65,5.46-6.69-.11-.65-.75-1.14-1.89-1.47-.19-.06-4-1.27-7.8,5.24l-.24.41-.42-.23a45.58,45.58,0,0,1-12.8-10.88l-.42-.55,84.05-29.4.19.41c.1.22,9.81,22.05,1.14,37.38-4.61,8.15-13.51,13-26.46,14.54l-.35,0-.16-.32c-2.48-5-9.73-17.64-13.77-16.68-.38.61-2.28,4.78,5.94,18.08Zm-31.73-10.31c14.31,7.69,26.52,9,29.9,9.25-8.86-14.68-5.39-18.43-5.23-18.58l.08-.09.12,0c5.28-1.72,13.44,13.83,15,16.83,12.42-1.5,21-6.21,25.36-14,7.77-13.73.28-33-1-36.05l-81.86,28.63a45.22,45.22,0,0,0,11.62,9.84c4.19-6.79,8.53-5.32,8.72-5.26,1.51.43,2.38,1.18,2.57,2.25C640.8,469,636.79,472.42,635.13,473.69Zm57.17-7.53a6.1,6.1,0,0,1-3.7-1.54,15.84,15.84,0,0,1-4.4-6c-2.35-5.39-1.87-10.63,1.11-11.93s7.15,1.9,9.51,7.29a16,16,0,0,1,1.45,7.33c-.18,2.32-1.09,4-2.56,4.6h0A3.52,3.52,0,0,1,692.3,466.16Zm-5.59-18.79a2.42,2.42,0,0,0-1,.2c-2.38,1-2.65,5.9-.59,10.61a14.84,14.84,0,0,0,4.1,5.66c1.52,1.21,3,1.6,4.09,1.11h0c1.12-.48,1.81-1.82,2-3.75a14.93,14.93,0,0,0-1.37-6.86C692.11,450.25,689,447.37,686.71,447.37Z" fill="#2f2e41" data-secondary="true"/>
  <path d="M825.92,482.67s-67.48-34.76-68.32-35.36c0,0-15.34,26.85,5.51,44,0,0-2.51-20.86,7.56-18.58,0,0,7.43,1.92-.48,22.89a48.45,48.45,0,0,0,12.94,4.2s-1.07-6.34.34-9.33a1.75,1.75,0,0,1,2.79-.53c1.23,1.2,2.84,4.14,3.46,11.42C789.72,501.37,813.58,500.65,825.92,482.67Z" fill="#7867e4" data-primary="true"/>
  <path d="M789.27,501.88l0-.47c-.62-7.11-2.15-10-3.32-11.1a1.21,1.21,0,0,0-1.07-.32,1.25,1.25,0,0,0-.92.7c-1.32,2.81-.31,9-.29,9l.11.69-.69-.12A49.09,49.09,0,0,1,770,496.06l-.4-.21.16-.41c4.57-12.13,4-17.75,2.69-20.32a3.52,3.52,0,0,0-1.87-1.92,4.38,4.38,0,0,0-4.14.91c-4.33,3.9-2.8,17-2.79,17.13l.15,1.24-1-.79c-20.94-17.21-5.79-44.36-5.63-44.63l.27-.48.45.32c1,.65,45.09,23.39,68.26,35.32l.51.26-.32.47c-12.35,18-36.36,18.91-36.6,18.92ZM785.07,489a2.21,2.21,0,0,1,1.53.62c1.27,1.23,2.91,4.18,3.58,11.25,3.36-.22,23.82-2.24,35-18-8.51-4.38-61.66-31.76-67.39-34.86-1.79,3.45-12.83,26.62,4.7,42.13-.29-3.49-.69-13.22,3.23-16.76a5.36,5.36,0,0,1,5-1.13,4.36,4.36,0,0,1,2.48,2.36c1.41,2.71,2.11,8.51-2.45,20.78a49.72,49.72,0,0,0,11.73,3.83c-.24-1.76-.71-6.41.48-8.93a2.25,2.25,0,0,1,1.64-1.26A1.9,1.9,0,0,1,785.07,489Z" fill="#2f2e41" data-secondary="true"/>
  <line x1="39.84" y1="609.14" x2="816.04" y2="608.39" fill="#fff"/>
  <path d="M39.84,610.14a1,1,0,0,1,0-2L816,607.4h0a1,1,0,0,1,1,1,1,1,0,0,1-1,1l-776.2.74Z" fill="#2f2e41" data-secondary="true"/>
  <rect x="251.7" y="45.16" width="519.08" height="325.88" rx="17.88" fill="#e6e7e8"/>
  <path d="M752.89,371.54H269.57a18.4,18.4,0,0,1-18.37-18.38V63a18.39,18.39,0,0,1,18.37-18.37H752.89A18.39,18.39,0,0,1,771.27,63V353.16A18.4,18.4,0,0,1,752.89,371.54ZM269.57,45.66A17.39,17.39,0,0,0,252.2,63V353.16a17.4,17.4,0,0,0,17.37,17.38H752.89a17.4,17.4,0,0,0,17.38-17.38V63a17.39,17.39,0,0,0-17.38-17.37Z" fill="#2f2e41" data-secondary="true"/>
  <circle cx="286.26" cy="66.33" r="5.13" fill="#fff"/>
  <path d="M286.26,72a5.64,5.64,0,1,1,5.63-5.63A5.64,5.64,0,0,1,286.26,72Zm0-10.27a4.64,4.64,0,1,0,4.63,4.64A4.64,4.64,0,0,0,286.26,61.69Z" fill="#2f2e41" data-secondary="true"/>
  <circle cx="308.61" cy="66.33" r="5.13" fill="#7867e4" data-primary="true"/>
  <path d="M308.61,72a5.64,5.64,0,1,1,5.63-5.63A5.64,5.64,0,0,1,308.61,72Zm0-10.27a4.64,4.64,0,1,0,4.63,4.64A4.64,4.64,0,0,0,308.61,61.69Z" fill="#2f2e41" data-secondary="true"/>
  <circle cx="330.42" cy="66.33" r="5.13" fill="#2f2e41" data-secondary="true"/>
  <rect x="402.26" y="60.55" width="328.45" height="10.91" rx="5.45" fill="#fff"/>
  <path d="M725.26,72H407.72a6,6,0,0,1,0-11.91H725.26a6,6,0,0,1,0,11.91ZM407.72,61.05a5,5,0,0,0,0,9.91H725.26a5,5,0,0,0,0-9.91Z" fill="#2f2e41" data-secondary="true"/>
  <rect x="437.55" y="60.55" width="38.7" height="10.91" rx="5.45" fill="#2f2e41" data-secondary="true"/>
  <rect x="272.86" y="87.77" width="147.64" height="261.8" fill="#fff"/>
  <path d="M421,350.06H272.36V87.27H421Zm-147.64-1H420V88.27H273.36Z" fill="#2f2e41" data-secondary="true"/>
  <rect x="436.96" y="86.8" width="147.64" height="261.8" fill="#fff"/>
  <path d="M585.1,349.1H436.46V86.3H585.1Zm-147.64-1H584.1V87.3H437.46Z" fill="#2f2e41" data-secondary="true"/>
  <rect x="601.62" y="87.77" width="147.64" height="261.8" fill="#fff"/>
  <path d="M749.76,350.06H601.12V87.27H749.76Zm-147.64-1H748.76V88.27H602.12Z" fill="#2f2e41" data-secondary="true"/>
  <rect x="308.88" y="122.58" width="75.76" height="42.92" fill="#e6e7e8"/>
  <path d="M385.14,166H308.38V122.08h76.76Zm-75.76-1h74.76V123.08H309.38Z" fill="#2f2e41" data-secondary="true"/>
  <path d="M374,134.89H320.12a.5.5,0,0,1,0-1H374a.5.5,0,0,1,0,1Z" fill="#2f2e41" data-secondary="true"/>
  <path d="M374,144.11H320.12a.5.5,0,0,1-.5-.5.5.5,0,0,1,.5-.5H374a.5.5,0,0,1,.5.5A.5.5,0,0,1,374,144.11Z" fill="#2f2e41" data-secondary="true"/>
  <path d="M361.31,153.32H320.12a.5.5,0,0,1-.5-.5.5.5,0,0,1,.5-.5h41.19a.5.5,0,0,1,.5.5A.5.5,0,0,1,361.31,153.32Z" fill="#2f2e41" data-secondary="true"/>
  <rect x="308.88" y="184.51" width="75.76" height="42.92" fill="#e6e7e8"/>
  <path d="M385.14,227.93H308.38V184h76.76Zm-75.76-1h74.76V185H309.38Z" fill="#2f2e41" data-secondary="true"/>
  <path d="M374,196.82H338.26a.5.5,0,0,1-.5-.5.51.51,0,0,1,.5-.5H374a.5.5,0,0,1,.5.5A.5.5,0,0,1,374,196.82Z" fill="#2f2e41" data-secondary="true"/>
  <path d="M374,206H338.26a.5.5,0,0,1-.5-.5.51.51,0,0,1,.5-.5H374a.5.5,0,0,1,.5.5A.5.5,0,0,1,374,206Z" fill="#2f2e41" data-secondary="true"/>
  <path d="M365.58,215.26H338.26a.5.5,0,0,1,0-1h27.32a.5.5,0,0,1,0,1Z" fill="#2f2e41" data-secondary="true"/>
  <path d="M324.5,199.29a.54.54,0,0,1-.35-.14l-3.37-3.21a.5.5,0,1,1,.69-.72l3,2.86,5.73-5.89a.5.5,0,1,1,.72.7l-6.08,6.25A.51.51,0,0,1,324.5,199.29Z" fill="#2f2e41" data-secondary="true"/>
  <path d="M324.67,208.75a.52.52,0,0,1-.35-.14l-3.38-3.21a.5.5,0,0,1,0-.71.49.49,0,0,1,.7,0l3,2.86,5.74-5.89a.5.5,0,1,1,.72.7L325,208.6A.51.51,0,0,1,324.67,208.75Z" fill="#2f2e41" data-secondary="true"/>
  <path d="M324.33,218a.49.49,0,0,1-.34-.14l-3.38-3.21a.5.5,0,1,1,.69-.72l3,2.87,5.73-5.9a.5.5,0,1,1,.72.7l-6.08,6.25A.51.51,0,0,1,324.33,218Z" fill="#2f2e41" data-secondary="true"/>
  <rect x="471.82" y="123.22" width="75.76" height="42.92" fill="#e6e7e8"/>
  <path d="M548.08,166.64H471.32V122.72h76.76Zm-75.76-1h74.76V123.72H472.32Z" fill="#2f2e41" data-secondary="true"/>
  <path d="M536.92,135.53H483.06a.5.5,0,0,1,0-1h53.86a.5.5,0,0,1,0,1Z" fill="#2f2e41" data-secondary="true"/>
  <path d="M536.92,144.75H483.06a.5.5,0,0,1-.5-.5.5.5,0,0,1,.5-.5h53.86a.5.5,0,0,1,.5.5A.5.5,0,0,1,536.92,144.75Z" fill="#2f2e41" data-secondary="true"/>
  <path d="M524.25,154H483.06a.5.5,0,0,1-.5-.5.5.5,0,0,1,.5-.5h41.19a.5.5,0,0,1,.5.5A.5.5,0,0,1,524.25,154Z" fill="#2f2e41" data-secondary="true"/>
  <rect x="637.33" y="184.48" width="75.76" height="42.92" fill="#e6e7e8"/>
  <path d="M713.59,227.9H636.83V184h76.76Zm-75.76-1h74.76V185H637.83Z" fill="#2f2e41" data-secondary="true"/>
  <path d="M702.43,196.79H648.56a.5.5,0,0,1-.5-.5.51.51,0,0,1,.5-.5h53.87a.5.5,0,0,1,.5.5A.5.5,0,0,1,702.43,196.79Z" fill="#2f2e41" data-secondary="true"/>
  <path d="M702.43,206H648.56a.5.5,0,0,1,0-1h53.87a.5.5,0,0,1,0,1Z" fill="#2f2e41" data-secondary="true"/>
  <path d="M689.76,215.23h-41.2a.5.5,0,0,1,0-1h41.2a.5.5,0,0,1,0,1Z" fill="#2f2e41" data-secondary="true"/>
  <rect x="471.82" y="185.15" width="75.76" height="42.92" fill="#e6e7e8"/>
  <path d="M548.08,228.58H471.32V184.65h76.76Zm-75.76-1h74.76V185.65H472.32Z" fill="#2f2e41" data-secondary="true"/>
  <rect x="471.82" y="244.81" width="75.76" height="42.92" fill="#e6e7e8"/>
  <path d="M548.08,288.23H471.32V244.31h76.76Zm-75.76-1h74.76V245.31H472.32Z" fill="#2f2e41" data-secondary="true"/>
  <path d="M536.92,197.46H501.2a.5.5,0,0,1-.5-.5.51.51,0,0,1,.5-.5h35.72a.5.5,0,0,1,.5.5A.5.5,0,0,1,536.92,197.46Z" fill="#2f2e41" data-secondary="true"/>
  <path d="M536.92,206.68H501.2a.5.5,0,0,1-.5-.5.51.51,0,0,1,.5-.5h35.72a.5.5,0,0,1,.5.5A.5.5,0,0,1,536.92,206.68Z" fill="#2f2e41" data-secondary="true"/>
  <path d="M528.52,215.9H501.2a.5.5,0,0,1,0-1h27.32a.5.5,0,0,1,0,1Z" fill="#2f2e41" data-secondary="true"/>
  <path d="M487.44,199.93a.52.52,0,0,1-.35-.14l-3.37-3.21a.5.5,0,1,1,.69-.72l3,2.87,5.73-5.9a.5.5,0,0,1,.72.7l-6.08,6.25A.51.51,0,0,1,487.44,199.93Z" fill="#2f2e41" data-secondary="true"/>
  <path d="M487.61,209.39a.52.52,0,0,1-.35-.14L483.89,206a.5.5,0,1,1,.68-.72l3,2.87,5.74-5.9a.5.5,0,1,1,.72.7L488,209.24A.51.51,0,0,1,487.61,209.39Z" fill="#2f2e41" data-secondary="true"/>
  <path d="M487.27,218.68a.49.49,0,0,1-.34-.14l-3.38-3.21a.49.49,0,0,1,0-.7.5.5,0,0,1,.71,0l3,2.87,5.73-5.9a.5.5,0,0,1,.72.7l-6.08,6.25A.51.51,0,0,1,487.27,218.68Z" fill="#2f2e41" data-secondary="true"/>
  <path d="M537.49,257.12h-53.4a.5.5,0,0,1-.5-.5.51.51,0,0,1,.5-.5h53.4a.5.5,0,0,1,.5.5A.5.5,0,0,1,537.49,257.12Z" fill="#2f2e41" data-secondary="true"/>
  <path d="M517.15,267.3H484.6a.51.51,0,0,1-.5-.5.5.5,0,0,1,.5-.5h32.55a.5.5,0,0,1,.5.5A.5.5,0,0,1,517.15,267.3Z" fill="#2f2e41" data-secondary="true"/>
  <rect x="637.33" y="124.11" width="75.76" height="42.92" fill="#e6e7e8"/>
  <path d="M713.59,167.53H636.83V123.61h76.76Zm-75.76-1h74.76V124.61H637.83Z" fill="#2f2e41" data-secondary="true"/>
  <path d="M702,136.42h-53.4a.5.5,0,0,1-.5-.5.5.5,0,0,1,.5-.5H702a.5.5,0,0,1,.5.5A.51.51,0,0,1,702,136.42Z" fill="#2f2e41" data-secondary="true"/>
  <path d="M681.69,146.59H649.15a.5.5,0,0,1-.5-.5.5.5,0,0,1,.5-.5h32.54a.5.5,0,0,1,.5.5A.5.5,0,0,1,681.69,146.59Z" fill="#2f2e41" data-secondary="true"/>
  <path d="M294.16,608.06l-151.61.62-32.34.13L83.5,465.49S76,439.15,108.7,430.88H109l126.51-.38Z" fill="#e6e7e8"/>
  <path d="M109.79,609.31l-.07-.41L83,465.58a27.88,27.88,0,0,1,2.73-20.07c4.18-7.25,11.86-12.34,22.84-15.11l.12,0H109L235.84,430l.11.35,58.9,178.21Zm-1-177.93C98.1,434.09,90.65,439,86.61,446,81.22,455.34,84,465.25,84,465.35l26.64,143,182.85-.74L235.11,431Z" fill="#2f2e41" data-secondary="true"/>
  <path d="M142.55,608.68l-32.34.13L83.5,465.49S76,439.15,108.7,430.88H109Z" fill="#d1d3d4"/>
  <path d="M109.79,609.31l-.07-.41L83,465.58a27.88,27.88,0,0,1,2.73-20.07c4.18-7.25,11.86-12.34,22.84-15.11l.12,0h.69l.07.41,33.69,178.38Zm-1.22-177.87c-10.56,2.71-17.95,7.61-22,14.56C81.22,455.34,84,465.25,84,465.35l26.64,143,31.32-.13Z" fill="#2f2e41" data-secondary="true"/>
  <path d="M353.13,418c0,.46-.07.91-.12,1.36-2.17,22.15-22.68,37.58-44.77,34.87-28.81-3.54-51.91-30.46-51.91-30.46,40.34,2.3,35.73-35.15,35.73-35.15l7.77-15.56,26.5,8.07,1.51,15.27a24.92,24.92,0,0,0,1.75,7.28C335.92,419,353.13,418,353.13,418Z" fill="#fff"/>
  <path d="M313.19,455a40.11,40.11,0,0,1-5-.31c-28.67-3.52-52-30.36-52.23-30.63l-.76-.89,1.17.07c12.22.69,21.47-2.22,27.5-8.66,9.51-10.14,7.72-25.77,7.7-25.93l0-.15,8-16.07,27.23,8.29,1.54,15.6a24.92,24.92,0,0,0,1.71,7.14c6.12,14.77,22.87,14,23.05,14l.56,0,0,.57c0,.46-.07.91-.12,1.37A38.74,38.74,0,0,1,339,446,41.45,41.45,0,0,1,313.19,455Zm-55.68-30.71c4.3,4.67,25.46,26.3,50.79,29.41a40.47,40.47,0,0,0,30.09-8.48,37.77,37.77,0,0,0,14.13-25.94c0-.27.05-.53.07-.8-3.07,0-17.72-.79-23.46-14.64a25.71,25.71,0,0,1-1.79-7.42l-1.47-14.94-25.78-7.85-7.52,15c.16,1.68,1.34,16.64-8,26.58C278.55,421.75,269.46,424.79,257.51,424.32Z" fill="#2f2e41" data-secondary="true"/>
  <path d="M526.45,454.44a28.21,28.21,0,0,1-1.32-27.17c3.54-7.28,8.46-20.49,3.3-29.93,0,0-2.08-6.51-16.61-12.39a92.46,92.46,0,0,0-12.9-4.07l-38.07-8.35-.77-.1c-4.67-.51-29.16-2.18-35.15,18.49a24.63,24.63,0,0,0,6.63,25.88s6.63,6.2,2.14,16c0,0-9.84,13.18-2.2,38.31a29.4,29.4,0,0,1,1.05,12.57l-2.49,18.19-32-51.64s-21.94-43-45-32.26c0,.46-.07.91-.12,1.36-2.17,22.15-22.68,37.58-44.77,34.87-28.81-3.54-51.91-30.46-51.91-30.46s-21.89-13-36.29,11.51c0,0-1.45,1.45-17.87,41.49l-44.31,99.87s-12.19,25.33,7.37,31.75H383.34s2.72-18.06-1.21-36.47c-1.64-7.67-4.43-15.4-9.05-21.9l4.81-28.23,67.67,77.94H483.1l39.44-123.17a18.7,18.7,0,0,0,4.94-20.08,7.65,7.65,0,0,0-.85-1.75ZM232,556.47l10.53-36.11,11.66,30.09Z" fill="#7867e4" data-primary="true"/>
  <path d="M383.77,608.89l-218.7,0c-4.89-1.61-8.27-4.53-10-8.67-4.21-9.89,2.1-23.22,2.37-23.78l44.31-99.85c14.7-35.86,17.42-40.85,17.89-41.54h0c4.59-7.8,10.41-12.66,17.31-14.44,10.35-2.67,19.29,2.52,19.67,2.75l.12.1c.23.27,23.31,26.82,51.59,30.29a40.47,40.47,0,0,0,30.09-8.48,37.77,37.77,0,0,0,14.13-25.94c0-.44.08-.89.11-1.34l0-.29.26-.13c23.21-10.84,44.73,30.71,45.63,32.48l31.22,50.42,2.3-16.81a28.86,28.86,0,0,0-1-12.35c-7.4-24.34,1.6-37.8,2.24-38.71,4.24-9.35-1.79-15.17-2-15.42-12.3-11.64-6.81-26.28-6.76-26.42,6.09-21,30.78-19.35,35.68-18.8.51.05.79.1.79.1L499,380.39a94.56,94.56,0,0,1,13,4.09c14.57,5.91,16.81,12.43,16.89,12.71,5.26,9.6.18,23.11-3.32,30.3a27.56,27.56,0,0,0,1.29,26.68l.18.29a8.43,8.43,0,0,1,.91,1.87,19.36,19.36,0,0,1-5,20.51L483.46,600.23H445.33l-.15-.18-67-77.14-4.6,27c4.12,5.87,7.15,13.24,9,21.92,3.9,18.28,1.24,36.46,1.21,36.65Zm-218.46-1H382.9c.37-2.83,2.27-19.31-1.26-35.86-1.84-8.63-4.86-15.94-9-21.72l-.12-.17,0-.21,5-29.27,68.21,78.57h36.94l39.38-123,.12-.1A18.35,18.35,0,0,0,527,456.64a7.52,7.52,0,0,0-.8-1.65l-.19-.29a28.56,28.56,0,0,1-1.34-27.64c3.42-7,8.39-20.19,3.31-29.48-.06-.15-2.29-6.47-16.36-12.17a92.63,92.63,0,0,0-12.83-4.05L460.75,373h0l-.72-.09c-4.75-.53-28.75-2.12-34.62,18.13-.07.18-5.3,14.2,6.49,25.38.07.06,6.84,6.55,2.26,16.6l-.06.09c-.09.13-9.59,13.3-2.12,37.87a29.74,29.74,0,0,1,1.07,12.78l-2.68,19.57-32.7-52.83c-.23-.46-21.83-42.18-44.07-32.19q0,.54-.09,1.08A38.74,38.74,0,0,1,339,446a41.42,41.42,0,0,1-30.83,8.69c-28-3.43-50.85-29.06-52.17-30.56-.84-.47-9.37-5.05-18.85-2.6-6.63,1.71-12.24,6.42-16.69,14l-.08.1c0,.06-2,2.88-17.75,41.32l-44.32,99.88c-.07.15-6.4,13.5-2.36,23C157.6,603.66,160.74,606.37,165.31,607.89Zm66-50.7,11.19-38.39,12.4,32Zm11.33-35.28-9.87,33.85,20.79-5.65Z" fill="#2f2e41" data-secondary="true"/>
  <path d="M232,557a.5.5,0,0,1-.48-.35.51.51,0,0,1,.33-.63c4.12-1.28,100.37-31,114.64-10.38,2.42-1.59,14.32-8.28,26.93,4a.5.5,0,1,1-.7.71c-13.43-13.12-25.55-4-26.06-3.66a.47.47,0,0,1-.39.1.54.54,0,0,1-.34-.23c-12.81-20.87-112.77,10-113.78,10.37A.39.39,0,0,1,232,557Z" fill="#2f2e41" data-secondary="true"/>
  <path d="M377.89,522.29a.49.49,0,0,1-.35-.15.49.49,0,0,1,0-.7l7.39-7.51a12.66,12.66,0,0,0,2.82-13.26L373,461.1a.5.5,0,0,1,.3-.64.49.49,0,0,1,.64.29l14.76,39.57a13.66,13.66,0,0,1-3.05,14.31l-7.38,7.51A.51.51,0,0,1,377.89,522.29Z" fill="#2f2e41" data-secondary="true"/>
  <path d="M511.82,385a92.46,92.46,0,0,0-12.9-4.07l-38.07-8.35-.77-.1L470,358.66l36.47,6.11Z" fill="#2f2e41" data-secondary="true"/>
  <path d="M512.56,385.79l-.93-.38a92.63,92.63,0,0,0-12.83-4.05L460.75,373h0l-.72-.09-.86-.09,10.61-14.73,37.1,6.22ZM461,372.05l38,8.34a95.37,95.37,0,0,1,12.06,3.72l-5-18.9-35.85-6Z" fill="#2f2e41" data-secondary="true"/>
  <path d="M383.34,608.39s2.72-18.06-1.21-36.47l16.6,4.06.43,32.13Z" fill="#2f2e41" data-secondary="true"/>
  <path d="M382.76,608.9l.09-.58c0-.18,2.65-18.2-1.21-36.29l-.17-.78,17.75,4.33.45,33Zm0-36.3c3.29,16.17,1.54,32.07,1.13,35.28l14.74-.26-.42-31.25Z" fill="#2f2e41" data-secondary="true"/>
  <polygon points="482.01 478.44 428.97 608.23 616.3 608.23 668.59 478.82 482.01 478.44" fill="#fff"/>
  <path d="M616.64,608.73H428.23l.28-.69,53.17-130.1H482l187.32.38-.27.69Zm-186.92-1H616l51.88-128.41L482.35,479Z" fill="#2f2e41" data-secondary="true"/>
  <polygon points="474.11 476.19 671.23 476.19 618.46 608.07 616.3 608.23 668.59 478.82 482.01 478.44 428.97 608.23 420.69 607.85 474.11 476.19" fill="#2f2e41" data-secondary="true"/>
  <path d="M615.54,608.78l52.31-129.46L482.35,479,429.3,608.74l-9.33-.42.26-.66,53.54-132H672L618.81,608.55Zm-194.12-1.4,7.22.33,53-129.77H482l187.32.38-.27.69-52,128.66,1-.07,52.37-130.91h-196Z" fill="#2f2e41" data-secondary="true"/>
  <path d="M399.16,608.11l7.74-.11a11.44,11.44,0,0,1,4.44.83l15,6a7.91,7.91,0,0,1,3.47,2.74l4.78,6.75s4.57,9.68,11.28,8.84a.23.23,0,0,0,.2-.25l-.44-3.48a.1.1,0,0,1,.19-.06c1,2,5.15,9.09,10.94,7.22a.14.14,0,0,0,.1-.16l-.34-1.68s3.16,3.51,7.39,2.9a.14.14,0,0,0,.11-.18l-1.41-4.09a.08.08,0,0,1,.13-.08,6.07,6.07,0,0,0,5.51,2,.13.13,0,0,0,.1-.16c-.38-1.4-3.7-13.54-5.89-25l-1.62-3.6s10.07,3.24,11.86-1.26c0,0-10.78-4.85-25.17-15.82,0,0-7.55-7.37-25.71-7.73l-23-1.26Z" fill="#fff"/>
  <path d="M462.88,638.23a9.26,9.26,0,0,1-5.6-2.09l0,.2a.65.65,0,0,1-.44.74c-4.95,1.6-8.68-2.8-10.54-5.74l.19,1.52a.71.71,0,0,1-.15.54.69.69,0,0,1-.48.27c-7,.89-11.6-8.72-11.8-9.12l-4.73-6.68a7.3,7.3,0,0,0-3.25-2.56l-15-6a11.09,11.09,0,0,0-4.25-.79l-8.24.11-.4-28.68,23.55,1.29c18.13.36,25.72,7.57,26,7.87,14.12,10.77,24.92,15.68,25,15.73l.44.2-.18.44c-1.6,4-8.71,2.56-11.43,1.85l1.21,2.72c2.2,11.54,5.51,23.66,5.89,25a.69.69,0,0,1-.08.51.66.66,0,0,1-.43.28,6.27,6.27,0,0,1-4.73-1.09l.89,2.59a.61.61,0,0,1-.06.54.65.65,0,0,1-.45.3A7.79,7.79,0,0,1,462.88,638.23Zm-7.23-5.15,1.21,1.35s2.82,3,6.51,2.79l-1.27-3.66a.6.6,0,0,1,.26-.7.57.57,0,0,1,.72.12,5.63,5.63,0,0,0,4.65,1.91c-.7-2.56-3.72-13.83-5.78-24.61l-2.06-4.57,1.07.35c2.56.82,9.28,2.22,11-.55a150.31,150.31,0,0,1-24.8-15.66c-.12-.11-7.7-7.28-25.42-7.63L399.28,581l.37,26.61,7.24-.1a11.53,11.53,0,0,1,4.64.87l15,6a8.26,8.26,0,0,1,3.69,2.91L435,624c.08.17,4.45,9.15,10.54,8.67l-.41-3.21a.6.6,0,0,1,.42-.65.62.62,0,0,1,.72.3c1,2,4.81,8.44,10,7.06Zm8.16,4.09Zm-7.47-.63Zm.24-.42Zm11.55-1.29Zm-5.08-1.6Zm-17.7-3.63h0Zm.75-.23h0Z" fill="#2f2e41" data-secondary="true"/>
  <path d="M476.1,359.7a69.83,69.83,0,0,1,2.29-23.37,38.47,38.47,0,0,1,4.22-9.25c4.62-7.46,16.62-27.52,18.7-37.65,0,0,4.29,2.21-.81,22.6-.16.65-1.61,5.33.49,7.59l13.4-15.18s0-3.55,1-5a20,20,0,0,1-.16-10.82s-1.29-2.1,1-4.52l8.32,18.13a17.59,17.59,0,0,1,1.59,7l.24,13.46a5.19,5.19,0,0,1-.87,2.93l-25.59,38.07Z" fill="#fff"/>
  <path d="M500.09,364.26l-24.45-4.13,0-.38a70.84,70.84,0,0,1,2.3-23.56,38.54,38.54,0,0,1,4.28-9.37c4.92-8,16.59-27.53,18.63-37.49l.14-.65.58.3c.48.25,4.5,3-.55,23.18l-.05.18c-1,3.56-.57,5.47.08,6.5l12.87-14.59a12.9,12.9,0,0,1,.93-4.88,20.21,20.21,0,0,1-.15-10.7c-.3-.64-1-2.67,1.13-4.91l.51-.55L524.94,302a17.87,17.87,0,0,1,1.64,7.22l.24,13.46a5.55,5.55,0,0,1-1,3.21Zm-23.52-5,23.05,3.89L525,325.36a4.69,4.69,0,0,0,.78-2.64l-.24-13.46a16.94,16.94,0,0,0-1.55-6.82l-8-17.41a3.08,3.08,0,0,0-.42,3.33l.11.19-.06.21a19.67,19.67,0,0,0,.15,10.52l.09.23-.14.21c-.73,1.08-.89,3.78-.89,4.72v.19L501,320.37l-.38-.41c-1-1-1.89-3.28-.64-7.88l0-.17c3.68-14.72,2.4-19.78,1.55-21.38C499,300.9,487.83,319.6,483,327.34a37.5,37.5,0,0,0-4.17,9.13A69.73,69.73,0,0,0,476.57,359.27Z" fill="#2f2e41" data-secondary="true"/>
  <path d="M506.08,338.18a.46.46,0,0,1-.29-.1.5.5,0,0,1-.11-.7l12.11-16.7c-3.07-6.53-3.86-15.8-3.9-16.19a.5.5,0,0,1,.46-.54.51.51,0,0,1,.54.45c0,.1.83,9.74,3.93,16.12a.5.5,0,0,1-.05.51L506.49,338A.49.49,0,0,1,506.08,338.18Z" fill="#2f2e41" data-secondary="true"/>
  <path d="M526.39,322.62a.49.49,0,0,1-.45-.28l-11-22.68a.5.5,0,1,1,.9-.44l11,22.68a.5.5,0,0,1-.23.67A.44.44,0,0,1,526.39,322.62Z" fill="#2f2e41" data-secondary="true"/>
  <path d="M526.19,312a.5.5,0,0,1-.45-.28l-11-22.91a.5.5,0,0,1,.9-.43l11,22.91a.49.49,0,0,1-.23.66A.44.44,0,0,1,526.19,312Z" fill="#2f2e41" data-secondary="true"/>
  <path d="M506.38,323.12a.54.54,0,0,1-.32-.11.52.52,0,0,1-.07-.71l8.82-10.8a.5.5,0,1,1,.77.64l-8.81,10.79A.49.49,0,0,1,506.38,323.12Z" fill="#2f2e41" data-secondary="true"/>
  <path d="M508.06,328.07a.5.5,0,0,1-.38-.82l8.92-10.5a.5.5,0,0,1,.76.64l-8.92,10.51A.5.5,0,0,1,508.06,328.07Z" fill="#2f2e41" data-secondary="true"/>
  <path d="M507,330.15a.52.52,0,0,1-.43-.24l-6-10a.51.51,0,0,1,.17-.69.51.51,0,0,1,.69.18l6,10a.49.49,0,0,1-.17.68A.48.48,0,0,1,507,330.15Z" fill="#2f2e41" data-secondary="true"/>
  <path d="M489.24,344.61a.54.54,0,0,1-.27-.07.5.5,0,0,1-.15-.69A50.3,50.3,0,0,0,496,325a.5.5,0,0,1,1,.11,51.54,51.54,0,0,1-7.31,19.23A.48.48,0,0,1,489.24,344.61Z" fill="#2f2e41" data-secondary="true"/>
  <rect x="281.87" y="301.13" width="55.24" height="89.99" rx="27.62" transform="translate(-154.58 331.04) rotate(-46.34)" fill="#fff"/>
  <path d="M322.05,386.25a27.94,27.94,0,0,1-19.4-7.78l-25.14-24a28.12,28.12,0,1,1,38.82-40.68l25.15,24a28.12,28.12,0,0,1-18.76,48.45ZM296.93,307a27.1,27.1,0,0,0-18.73,46.72l25.14,24a27.12,27.12,0,0,0,38.34-.9h0a27.13,27.13,0,0,0-.89-38.34l-25.15-24A27,27,0,0,0,296.93,307Z" fill="#2f2e41" data-secondary="true"/>
  <polygon points="246.87 309.02 242.1 325.12 253.28 328.57 260.18 319.37 246.87 309.02" fill="#7867e4" data-primary="true"/>
  <path d="M253.47,329.16l-12-3.7,5.12-17.28,14.27,11.1Zm-10.75-4.37,10.37,3.2,6.39-8.52-12.34-9.6Z" fill="#2f2e41" data-secondary="true"/>
  <path d="M166.61,282.3c-6.42-29.88-31.88-18.37-31.88-18.37l-27,77.26s23.69,21.92,52.47,9.3c0,0,10.18-6.42,21.91-2,0,0,19.93,15.06,30.33-3.09,0,0,10.63-32.33,30.55-22.81l3.54-12.39s-11.73-23-45.38-8.64c0,0-15.79,9.14-21.81-8.2a13.12,13.12,0,0,1-.64-3.23c-.63-8.49-5.56-50.47-40.64-35.72l-1.55,6s17.47-6.53,27.2,3.89a14.67,14.67,0,0,1,3.61,7.38c1.81,9.72,9,40.55,27,35.88,0,0-17.27,7.75-25.9-19.7Z" fill="#2f2e41" data-secondary="true"/>
  <path d="M198.18,354.86c-8.1,0-15.51-5.33-16.32-5.92-11.33-4.24-21.31,1.91-21.41,2A45.57,45.57,0,0,1,142,354.85c-19.92,0-34.4-13.12-34.59-13.29l-.24-.23,27.19-77.77.19-.09c.44-.2,11-4.85,20.33-.13,6.09,3.08,10.21,9.42,12.24,18.84l1.76,5.51c3.14,10,7.73,16.36,13.66,19a15,15,0,0,0,4.27,1.21,14.23,14.23,0,0,1-3.36-1.58c-10.39-6.6-15.07-26.38-16.6-34.58a14.17,14.17,0,0,0-3.48-7.14c-9.4-10.06-26.49-3.83-26.67-3.76l-.9.33,1.86-7.14.23-.1c9.9-4.17,18.33-4.2,25-.1,13.23,8.1,15.83,29.79,16.31,36.25a12.17,12.17,0,0,0,.62,3.1c1.72,5,4.44,8.19,8.06,9.54,6.15,2.29,12.95-1.57,13-1.61,33.75-14.43,46,8.6,46.08,8.84l.09.18L243.3,323.3l-.54-.25a14.63,14.63,0,0,0-12.53-.55C219,327.28,213,345.37,212.9,345.55l0,.09c-2.83,4.94-6.62,7.93-11.28,8.88A17,17,0,0,1,198.18,354.86ZM108.3,341c2.58,2.22,25.08,20.65,51.68,9,0,0,10.47-6.47,22.3-2l.12.07c.1.07,9.83,7.31,19,5.44,4.34-.89,7.9-3.7,10.58-8.35.43-1.28,6.43-18.72,17.86-23.61a15.52,15.52,0,0,1,12.83.32L246,310.26c-1.16-2-13.36-21.61-44.64-8.24-.24.15-7.22,4.12-13.81,1.66-3.92-1.46-6.84-4.87-8.67-10.15a13.71,13.71,0,0,1-.67-3.36c-.47-6.33-3-27.62-15.83-35.47-6.36-3.89-14.39-3.86-23.89.08l-1.26,4.85c3.73-1.16,18.28-4.88,26.86,4.31a15.13,15.13,0,0,1,3.73,7.63c1.51,8.07,6.09,27.54,16.16,33.93a12.46,12.46,0,0,0,10.19,1.56l.33.94a16,16,0,0,1-12.38-.38c-6.2-2.78-11-9.39-14.2-19.63l-1.78-5.58c-2-9.12-5.9-15.23-11.72-18.17-8.26-4.17-17.8-.54-19.27.06Z" fill="#2f2e41" data-secondary="true"/>
  <path d="M266.12,376.25S237.38,360,249.88,329c0,0,4.74-10.75,19.74-17.5,0,0,25.74-11.24,26.74-19.74,0,0,17.49,6.25,8.75,28.24,0,0-7,17-17.5,26.49,0,0,15.5,11.5,12,23.49Z" fill="#2f2e41" data-secondary="true"/>
  <path d="M266,376.78l-.16-.09c-.29-.17-29-16.82-16.46-47.86.06-.12,5-11,20-17.76.26-.12,25.5-11.23,26.45-19.35l.08-.62.59.21a18.74,18.74,0,0,1,9.9,9.42c2.43,5.38,2.14,11.93-.86,19.48-.07.17-7,16.73-17.18,26.27,2.66,2.1,14.94,12.54,11.7,23.66l-.09.3-.3.06Zm30.71-84.3c-2.11,8.57-25.89,19-26.92,19.5-14.62,6.58-19.44,17.13-19.49,17.24-11.7,29,13.65,45.16,15.88,46.51l33-6.16c3-11.42-11.74-22.54-11.9-22.66l-.48-.36.45-.41c10.29-9.31,17.29-26.14,17.36-26.31,2.9-7.28,3.19-13.56.88-18.68A18.06,18.06,0,0,0,296.74,292.48Z" fill="#2f2e41" data-secondary="true"/>
  <path d="M305.61,300s7.36,2.7,11.63,15.16a.07.07,0,0,1-.11.07,27.45,27.45,0,0,0-14.72-8.16Z" fill="#2f2e41" data-secondary="true"/>
  <ellipse cx="282.74" cy="373.14" rx="14.82" ry="19.24" transform="translate(-181.78 431.43) rotate(-60)" fill="#fff"/>
  <path d="M286.77,389.69a23.55,23.55,0,0,1-11.69-3.28c-9.43-5.44-13.67-15.83-9.44-23.14,2.06-3.57,5.78-5.88,10.49-6.5a22.87,22.87,0,0,1,14.27,3.1h0c9.42,5.45,13.66,15.83,9.44,23.14-2.06,3.57-5.79,5.88-10.49,6.51A22.06,22.06,0,0,1,286.77,389.69Zm-8.06-32.09a18,18,0,0,0-2.45.16c-4.39.58-7.86,2.72-9.76,6-3.94,6.84.13,16.6,9.08,21.77a21.79,21.79,0,0,0,13.64,3c4.39-.58,7.85-2.72,9.75-6,3.95-6.84-.12-16.6-9.07-21.77h0A22.58,22.58,0,0,0,278.71,357.6Z" fill="#2f2e41" data-secondary="true"/>
  <path d="M445.79,629.88a.52.52,0,0,1-.43-.24l-8.65-14.23a.5.5,0,0,1,.85-.52l8.66,14.23a.51.51,0,0,1-.43.76Z" fill="#2f2e41" data-secondary="true"/>
  <path d="M456.49,635.26a.5.5,0,0,1-.43-.25l-10.68-18.47a.51.51,0,0,1,.18-.69.51.51,0,0,1,.69.19l10.68,18.47a.5.5,0,0,1-.19.68A.45.45,0,0,1,456.49,635.26Z" fill="#2f2e41" data-secondary="true"/>
  <path d="M462.58,633.89a.51.51,0,0,1-.46-.28l-8.45-17.87a.5.5,0,1,1,.9-.42L463,633.18a.5.5,0,0,1-.24.67A.52.52,0,0,1,462.58,633.89Z" fill="#2f2e41" data-secondary="true"/>
  <rect x="374.13" y="102.86" width="310.09" height="191.24" fill="#e6e7e8"/>
  <path d="M684.72,294.6H373.63V102.36H684.72Zm-310.09-1H683.72V103.36H374.63Z" fill="#2f2e41" data-secondary="true"/>
  <rect x="376.64" y="120.28" width="305.06" height="171.5" fill="#fff"/>
  <path d="M682.2,292.28H376.14V119.78H682.2Zm-305.06-1H681.2V120.78H377.14Z" fill="#2f2e41" data-secondary="true"/>
  <rect x="475.94" y="185.32" width="166.08" height="17.81" fill="#e6e7e8"/>
  <path d="M642.52,203.63H475.44V184.82H642.52Zm-166.08-1H641.52V185.82H476.44Z" fill="#2f2e41" data-secondary="true"/>
  <rect x="475.94" y="211.26" width="166.08" height="17.81" fill="#e6e7e8"/>
  <path d="M642.52,229.56H475.44v-18.8H642.52Zm-166.08-1H641.52v-16.8H476.44Z" fill="#2f2e41" data-secondary="true"/>
  <path d="M642.76,102.9h36.73a0,0,0,0,1,0,0V114a2.58,2.58,0,0,1-2.58,2.58H645.34a2.58,2.58,0,0,1-2.58-2.58V102.9A0,0,0,0,1,642.76,102.9Z" fill="#7867e4" data-primary="true"/>
  <path d="M676.91,117.05H645.34a3.08,3.08,0,0,1-3.08-3.08V102.4H680V114A3.08,3.08,0,0,1,676.91,117.05ZM643.26,103.4V114a2.08,2.08,0,0,0,2.08,2.08h31.57A2.08,2.08,0,0,0,679,114V103.4Z" fill="#2f2e41" data-secondary="true"/>
  <line x1="657.71" y1="105.51" x2="664.25" y2="112.92" fill="#e6e7e8"/>
  <rect x="660.48" y="104.28" width="1" height="9.87" transform="translate(93.09 464.64) rotate(-41.42)" fill="#2f2e41" data-secondary="true"/>
  <line x1="657.42" y1="112.92" x2="664.39" y2="105.66" fill="#e6e7e8"/>
  <polygon points="657.78 113.27 657.06 112.57 664.03 105.31 664.75 106.01 657.78 113.27" fill="#2f2e41" data-secondary="true"/>
  <rect x="518.54" y="263.41" width="72.52" height="19.91" rx="1.96" fill="#7867e4" data-primary="true"/>
  <path d="M589.1,283.82H520.49a2.46,2.46,0,0,1-2.45-2.46v-16a2.46,2.46,0,0,1,2.45-2.46H589.1a2.46,2.46,0,0,1,2.45,2.46v16A2.46,2.46,0,0,1,589.1,283.82Zm-68.61-19.91a1.45,1.45,0,0,0-1.45,1.46v16a1.46,1.46,0,0,0,1.45,1.46H589.1a1.46,1.46,0,0,0,1.45-1.46v-16a1.45,1.45,0,0,0-1.45-1.46Z" fill="#2f2e41" data-secondary="true"/>
  <rect x="599.58" y="263.7" width="72.52" height="19.91" rx="1.96" fill="#e6e7e8"/>
  <path d="M670.15,284.1H601.54a2.45,2.45,0,0,1-2.45-2.45v-16a2.45,2.45,0,0,1,2.45-2.45h68.61a2.45,2.45,0,0,1,2.45,2.45v16A2.45,2.45,0,0,1,670.15,284.1Zm-68.61-19.9a1.45,1.45,0,0,0-1.45,1.45v16a1.45,1.45,0,0,0,1.45,1.45h68.61a1.45,1.45,0,0,0,1.45-1.45v-16a1.45,1.45,0,0,0-1.45-1.45Z" fill="#2f2e41" data-secondary="true"/>
  <path d="M392,137.05h-2.14v-.77H395v.77h-2.16v6.28H392Z" fill="#2f2e41" data-secondary="true"/>
  <path d="M395.92,135.9h.92v3.16h0a1.79,1.79,0,0,1,.66-.65,1.87,1.87,0,0,1,.94-.26c.68,0,1.77.42,1.77,2.17v3h-.92v-2.91c0-.82-.3-1.51-1.17-1.51a1.33,1.33,0,0,0-1.24.92,1.2,1.2,0,0,0-.06.44v3.06h-.92Z" fill="#2f2e41" data-secondary="true"/>
  <path d="M402.45,141a1.62,1.62,0,0,0,1.74,1.75,3.25,3.25,0,0,0,1.4-.26l.16.66a4,4,0,0,1-1.69.32,2.36,2.36,0,0,1-2.49-2.56,2.46,2.46,0,0,1,2.38-2.73,2.14,2.14,0,0,1,2.09,2.39,3.91,3.91,0,0,1,0,.43Zm2.7-.66a1.31,1.31,0,0,0-1.27-1.5,1.53,1.53,0,0,0-1.42,1.5Z" fill="#2f2e41" data-secondary="true"/>
  <path d="M409.7,142.39a2.37,2.37,0,0,0,1.21.36c.67,0,1-.33,1-.75s-.26-.68-.94-.93c-.91-.33-1.34-.83-1.34-1.43a1.55,1.55,0,0,1,1.74-1.49,2.6,2.6,0,0,1,1.25.31l-.23.67a2.05,2.05,0,0,0-1-.29c-.54,0-.85.31-.85.69s.31.61,1,.86c.88.33,1.33.77,1.33,1.53s-.69,1.52-1.9,1.52a2.86,2.86,0,0,1-1.42-.35Z" fill="#2f2e41" data-secondary="true"/>
  <path d="M414.69,141a1.62,1.62,0,0,0,1.74,1.75,3.25,3.25,0,0,0,1.4-.26l.16.66a4,4,0,0,1-1.68.32,2.36,2.36,0,0,1-2.5-2.56,2.46,2.46,0,0,1,2.38-2.73,2.14,2.14,0,0,1,2.09,2.39,3.91,3.91,0,0,1,0,.43Zm2.7-.66a1.31,1.31,0,0,0-1.27-1.5,1.53,1.53,0,0,0-1.42,1.5Z" fill="#2f2e41" data-secondary="true"/>
  <path d="M419.64,139.85c0-.6,0-1.12-.05-1.59h.81l0,1h0a1.53,1.53,0,0,1,1.41-1.11,1.09,1.09,0,0,1,.26,0v.87a1.51,1.51,0,0,0-.32,0,1.28,1.28,0,0,0-1.23,1.18,2.74,2.74,0,0,0,0,.43v2.7h-.91Z" fill="#2f2e41" data-secondary="true"/>
  <path d="M423.89,138.26l1,2.85c.17.46.3.88.41,1.3h0c.11-.42.26-.84.43-1.3l1-2.85h1l-2,5.07h-.88l-1.93-5.07Z" fill="#2f2e41" data-secondary="true"/>
  <path d="M429.18,141a1.63,1.63,0,0,0,1.74,1.75,3.25,3.25,0,0,0,1.4-.26l.16.66a4,4,0,0,1-1.68.32,2.36,2.36,0,0,1-2.49-2.56,2.46,2.46,0,0,1,2.37-2.73,2.14,2.14,0,0,1,2.09,2.39,3.91,3.91,0,0,1,0,.43Zm2.71-.66a1.32,1.32,0,0,0-1.28-1.5,1.54,1.54,0,0,0-1.42,1.5Z" fill="#2f2e41" data-secondary="true"/>
  <path d="M434.13,139.85c0-.6,0-1.12,0-1.59h.8l0,1h0a1.53,1.53,0,0,1,1.41-1.11,1,1,0,0,1,.26,0v.87a1.51,1.51,0,0,0-.32,0,1.3,1.3,0,0,0-1.23,1.18,2.74,2.74,0,0,0,0,.43v2.7h-.91Z" fill="#2f2e41" data-secondary="true"/>
  <path d="M441.9,137.39h0l-1.18.63-.18-.7,1.49-.79h.79v6.8h-.89Z" fill="#2f2e41" data-secondary="true"/>
  <path d="M446,142.68a4,4,0,0,0,.74,0,2.53,2.53,0,0,0,1.43-.66,3,3,0,0,0,.9-1.81h0a2,2,0,0,1-1.61.73,2,2,0,0,1-2-2.08,2.34,2.34,0,0,1,2.33-2.42c1.39,0,2.25,1.13,2.25,2.87a4.29,4.29,0,0,1-1.17,3.19,3.43,3.43,0,0,1-2,.91,3.91,3.91,0,0,1-.85.06Zm.34-3.91a1.31,1.31,0,0,0,1.3,1.44,1.51,1.51,0,0,0,1.34-.71.55.55,0,0,0,.09-.34c0-1.16-.43-2-1.4-2C446.9,137.11,446.35,137.8,446.35,138.77Z" fill="#2f2e41" data-secondary="true"/>
  <path d="M451.06,143.33v-.56l.72-.71c1.74-1.65,2.52-2.53,2.53-3.55a1.21,1.21,0,0,0-1.35-1.33,2.32,2.32,0,0,0-1.44.57l-.3-.65a3,3,0,0,1,1.93-.69,1.91,1.91,0,0,1,2.08,2c0,1.26-.91,2.27-2.34,3.65l-.54.51v0h3v.76Z" fill="#2f2e41" data-secondary="true"/>
  <path d="M456.71,142.79a.62.62,0,0,1,.63-.66.61.61,0,0,1,.62.66.63.63,0,1,1-1.25,0Z" fill="#2f2e41" data-secondary="true"/>
  <path d="M461,137.39h0l-1.18.63-.18-.7,1.49-.79h.78v6.8H461Z" fill="#2f2e41" data-secondary="true"/>
  <path d="M468.48,137.18a3.46,3.46,0,0,0-.69,0,2.77,2.77,0,0,0-2.37,2.42h0a2.07,2.07,0,0,1,3.7,1.41,2.28,2.28,0,0,1-2.26,2.4c-1.46,0-2.41-1.14-2.41-2.9a4.28,4.28,0,0,1,1.15-3.07,3.73,3.73,0,0,1,2.18-1,4.58,4.58,0,0,1,.67-.05Zm-.26,3.92a1.39,1.39,0,0,0-1.41-1.56,1.51,1.51,0,0,0-1.31.84.71.71,0,0,0-.11.41c0,1.12.54,1.94,1.5,1.94C467.68,142.73,468.22,142.07,468.22,141.1Z" fill="#2f2e41" data-secondary="true"/>
  <path d="M470.09,141.6a1.94,1.94,0,0,1,1.35-1.82v0a1.69,1.69,0,0,1-1.08-1.53,1.91,1.91,0,0,1,2.11-1.81,1.7,1.7,0,0,1,.86,3.27v0a1.89,1.89,0,0,1,1.37,1.76,2.1,2.1,0,0,1-2.32,2C471,143.45,470.09,142.6,470.09,141.6Zm3.67,0c0-.83-.58-1.22-1.5-1.49a1.49,1.49,0,0,0-1.23,1.41,1.27,1.27,0,0,0,1.36,1.3A1.24,1.24,0,0,0,473.76,141.56Zm-2.54-3.4c0,.68.51,1.05,1.3,1.26a1.34,1.34,0,0,0,1-1.24,1.07,1.07,0,0,0-1.16-1.11A1.08,1.08,0,0,0,471.22,138.16Z" fill="#2f2e41" data-secondary="true"/>
  <path d="M475.83,142.79a.63.63,0,1,1,.62.66A.62.62,0,0,1,475.83,142.79Z" fill="#2f2e41" data-secondary="true"/>
  <path d="M480.13,137.39h0l-1.18.63-.18-.7,1.49-.79H481v6.8h-.89Z" fill="#2f2e41" data-secondary="true"/>
  <path d="M483.79,142.79a.62.62,0,1,1,.61.66A.62.62,0,0,1,483.79,142.79Z" fill="#2f2e41" data-secondary="true"/>
  <path d="M488.09,137.39h0l-1.18.63-.18-.7,1.48-.79H489v6.8h-.89Z" fill="#2f2e41" data-secondary="true"/>
  <path d="M491.74,139.1a.62.62,0,0,1,.63-.66.62.62,0,0,1,.62.66.61.61,0,0,1-.63.65A.62.62,0,0,1,491.74,139.1Zm0,3.7a.62.62,0,0,1,.63-.66.66.66,0,0,1,0,1.31A.62.62,0,0,1,491.74,142.8Z" fill="#2f2e41" data-secondary="true"/>
  <path d="M494,141.6a2,2,0,0,1,1.35-1.82v0a1.67,1.67,0,0,1-1.07-1.53,1.9,1.9,0,0,1,2.1-1.81,1.7,1.7,0,0,1,.86,3.27v0a1.88,1.88,0,0,1,1.37,1.76,2.1,2.1,0,0,1-2.31,2C494.82,143.45,494,142.6,494,141.6Zm3.67,0c0-.83-.58-1.22-1.5-1.49a1.49,1.49,0,0,0-1.22,1.41,1.25,1.25,0,0,0,1.36,1.3A1.24,1.24,0,0,0,497.63,141.56Zm-2.54-3.4c0,.68.52,1.05,1.3,1.26a1.34,1.34,0,0,0,1-1.24,1.06,1.06,0,0,0-1.15-1.11A1.08,1.08,0,0,0,495.09,138.16Z" fill="#2f2e41" data-secondary="true"/>
  <path d="M504.15,139.86c0,2.31-.86,3.59-2.37,3.59-1.32,0-2.22-1.25-2.25-3.5s1-3.54,2.37-3.54S504.15,137.69,504.15,139.86Zm-3.69.1c0,1.77.54,2.77,1.38,2.77s1.39-1.09,1.39-2.83-.43-2.78-1.38-2.78S500.46,138.11,500.46,140Z" fill="#2f2e41" data-secondary="true"/>
  <path d="M510.74,143.33l-.08-.64h0a1.87,1.87,0,0,1-1.55.76,1.45,1.45,0,0,1-1.55-1.46c0-1.22,1.09-1.89,3.05-1.88V140a1,1,0,0,0-1.15-1.17,2.55,2.55,0,0,0-1.32.38l-.21-.61a3.17,3.17,0,0,1,1.66-.45c1.55,0,1.93,1.06,1.93,2.07v1.9a7.44,7.44,0,0,0,.08,1.21Zm-.14-2.59c-1,0-2.15.16-2.15,1.15a.82.82,0,0,0,.87.88,1.27,1.27,0,0,0,1.23-.85,1,1,0,0,0,.05-.3Z" fill="#2f2e41" data-secondary="true"/>
  <path d="M514.26,136.81v1.45h1.31V139h-1.31v2.73c0,.63.17,1,.69,1a2.14,2.14,0,0,0,.53-.06l0,.69a2.31,2.31,0,0,1-.81.13,1.29,1.29,0,0,1-1-.39,1.88,1.88,0,0,1-.36-1.32V139h-.78v-.71h.78v-1.21Z" fill="#2f2e41" data-secondary="true"/>
  <path d="M519.28,136.37a13.67,13.67,0,0,1,1.94-.15,4.08,4.08,0,0,1,2.86.88,3.28,3.28,0,0,1,1,2.54,3.73,3.73,0,0,1-1,2.74,4.33,4.33,0,0,1-3.12,1,15.42,15.42,0,0,1-1.65-.08Zm.91,6.24a6,6,0,0,0,.92,0,2.71,2.71,0,0,0,3-3c0-1.67-.93-2.72-2.86-2.72a5.44,5.44,0,0,0-1.07.09Z" fill="#2f2e41" data-secondary="true"/>
  <path d="M526.34,142.22a3.23,3.23,0,0,0,1.63.46c.93,0,1.48-.49,1.48-1.2s-.38-1-1.33-1.41c-1.15-.4-1.87-1-1.87-2a2,2,0,0,1,2.29-1.92,3.2,3.2,0,0,1,1.56.35l-.25.74a2.81,2.81,0,0,0-1.34-.34c-1,0-1.33.58-1.33,1.06,0,.66.42,1,1.4,1.36,1.19.46,1.8,1,1.8,2.07s-.81,2-2.47,2a3.53,3.53,0,0,1-1.8-.46Z" fill="#2f2e41" data-secondary="true"/>
  <path d="M531.84,136.28h.91v6.29h3v.76h-3.92Z" fill="#2f2e41" data-secondary="true"/>
  <path d="M539.42,136.37a9.81,9.81,0,0,1,1.74-.15,2.89,2.89,0,0,1,2.05.58,1.76,1.76,0,0,1,.55,1.34,1.86,1.86,0,0,1-1.33,1.8v0a1.78,1.78,0,0,1,1,1.42,10.85,10.85,0,0,0,.54,1.94h-.94a9,9,0,0,1-.47-1.68c-.21-1-.59-1.34-1.42-1.38h-.85v3.06h-.91Zm.91,3.21h.93c1,0,1.59-.53,1.59-1.34s-.66-1.3-1.62-1.32a3.7,3.7,0,0,0-.9.09Z" fill="#2f2e41" data-secondary="true"/>
  <path d="M549.85,140.76a2.47,2.47,0,0,1-2.52,2.69,2.41,2.41,0,0,1-2.43-2.61,2.47,2.47,0,0,1,2.51-2.69A2.4,2.4,0,0,1,549.85,140.76Zm-4,.05c0,1.11.64,1.94,1.54,1.94s1.54-.82,1.54-2c0-.86-.43-1.95-1.52-1.95S545.83,139.85,545.83,140.81Z" fill="#2f2e41" data-secondary="true"/>
  <path d="M555.47,142c0,.52,0,1,0,1.38h-.82l-.05-.83h0a1.92,1.92,0,0,1-1.68.95c-.79,0-1.75-.44-1.75-2.22v-3h.93v2.81c0,1,.29,1.61,1.13,1.61a1.34,1.34,0,0,0,1.21-.84,1.36,1.36,0,0,0,.08-.47v-3.11h.93Z" fill="#2f2e41" data-secondary="true"/>
  <path d="M558.31,136.81v1.45h1.32V139h-1.32v2.73c0,.63.18,1,.7,1a2.14,2.14,0,0,0,.53-.06l0,.69a2.31,2.31,0,0,1-.81.13,1.29,1.29,0,0,1-1-.39,1.88,1.88,0,0,1-.36-1.32V139h-.78v-.71h.78v-1.21Z" fill="#2f2e41" data-secondary="true"/>
  <path d="M561.33,141a1.62,1.62,0,0,0,1.74,1.75,3.25,3.25,0,0,0,1.4-.26l.16.66a4.06,4.06,0,0,1-1.69.32,2.36,2.36,0,0,1-2.49-2.56,2.46,2.46,0,0,1,2.38-2.73,2.14,2.14,0,0,1,2.09,2.39,3.91,3.91,0,0,1,0,.43Zm2.7-.66a1.31,1.31,0,0,0-1.28-1.5,1.52,1.52,0,0,0-1.41,1.5Z" fill="#2f2e41" data-secondary="true"/>
  <path d="M566.27,139.85c0-.6,0-1.12,0-1.59H567l0,1h0a1.52,1.52,0,0,1,1.4-1.11,1,1,0,0,1,.26,0v.87a1.35,1.35,0,0,0-.31,0,1.3,1.3,0,0,0-1.24,1.18,2.74,2.74,0,0,0,0,.43v2.7h-.91Z" fill="#2f2e41" data-secondary="true"/>
  <path d="M572.33,139.85c0-.6,0-1.12,0-1.59h.81l0,1h0a1.52,1.52,0,0,1,1.4-1.11,1.12,1.12,0,0,1,.27,0v.87a1.51,1.51,0,0,0-.32,0,1.28,1.28,0,0,0-1.23,1.18,2.74,2.74,0,0,0,0,.43v2.7h-.92Z" fill="#2f2e41" data-secondary="true"/>
  <path d="M576.38,141a1.61,1.61,0,0,0,1.73,1.75,3.33,3.33,0,0,0,1.41-.26l.15.66a4,4,0,0,1-1.68.32,2.36,2.36,0,0,1-2.49-2.56,2.46,2.46,0,0,1,2.37-2.73,2.15,2.15,0,0,1,2.1,2.39,2.24,2.24,0,0,1,0,.43Zm2.7-.66a1.31,1.31,0,0,0-1.28-1.5,1.52,1.52,0,0,0-1.41,1.5Z" fill="#2f2e41" data-secondary="true"/>
  <path d="M584.77,142.55h0a1.81,1.81,0,0,1-1.65.9,2.31,2.31,0,0,1-2.15-2.57,2.43,2.43,0,0,1,2.29-2.73,1.66,1.66,0,0,1,1.56.88h0l0-.77h.86c0,.43,0,.87,0,1.4v5.74h-.92Zm0-2.23a1.61,1.61,0,0,0,0-.39,1.35,1.35,0,0,0-1.32-1.05c-.95,0-1.53.81-1.53,2s.48,1.88,1.5,1.88a1.36,1.36,0,0,0,1.32-1,1.68,1.68,0,0,0,.07-.44Z" fill="#2f2e41" data-secondary="true"/>
  <path d="M591.66,142c0,.52,0,1,0,1.38h-.81l0-.83h0a1.9,1.9,0,0,1-1.67.95c-.8,0-1.75-.44-1.75-2.22v-3h.92v2.81c0,1,.3,1.61,1.13,1.61a1.34,1.34,0,0,0,1.22-.84,1.36,1.36,0,0,0,.08-.47v-3.11h.92Z" fill="#2f2e41" data-secondary="true"/>
  <path d="M594.43,136.84a.57.57,0,1,1-1.14,0,.56.56,0,0,1,.57-.57A.55.55,0,0,1,594.43,136.84Zm-1,6.49v-5.07h.92v5.07Z" fill="#2f2e41" data-secondary="true"/>
  <path d="M596.06,139.85c0-.6,0-1.12,0-1.59h.81l0,1h0a1.52,1.52,0,0,1,1.4-1.11,1,1,0,0,1,.26,0v.87a1.42,1.42,0,0,0-.31,0A1.3,1.3,0,0,0,597,140.2a2.74,2.74,0,0,0,0,.43v2.7h-.91Z" fill="#2f2e41" data-secondary="true"/>
  <path d="M600.1,141a1.62,1.62,0,0,0,1.74,1.75,3.25,3.25,0,0,0,1.4-.26l.16.66a4,4,0,0,1-1.69.32,2.36,2.36,0,0,1-2.49-2.56,2.46,2.46,0,0,1,2.38-2.73,2.14,2.14,0,0,1,2.09,2.39,3.91,3.91,0,0,1,0,.43Zm2.7-.66a1.31,1.31,0,0,0-1.27-1.5,1.53,1.53,0,0,0-1.42,1.5Z" fill="#2f2e41" data-secondary="true"/>
  <path d="M604.92,142.39a2.37,2.37,0,0,0,1.21.36c.67,0,1-.33,1-.75s-.26-.68-.94-.93c-.91-.33-1.34-.83-1.34-1.43a1.55,1.55,0,0,1,1.74-1.49,2.6,2.6,0,0,1,1.25.31l-.23.67a2.05,2.05,0,0,0-1-.29c-.54,0-.85.31-.85.69s.31.61,1,.86c.88.33,1.33.77,1.33,1.53s-.69,1.52-1.9,1.52a2.86,2.86,0,0,1-1.42-.35Z" fill="#2f2e41" data-secondary="true"/>
  <path d="M614.64,143.33l-.08-.64h0a1.89,1.89,0,0,1-1.55.76,1.45,1.45,0,0,1-1.55-1.46c0-1.22,1.09-1.89,3.05-1.88V140a1,1,0,0,0-1.15-1.17,2.52,2.52,0,0,0-1.32.38l-.21-.61a3.15,3.15,0,0,1,1.66-.45c1.55,0,1.93,1.06,1.93,2.07v1.9a7.44,7.44,0,0,0,.08,1.21Zm-.14-2.59c-1,0-2.15.16-2.15,1.15a.82.82,0,0,0,.87.88,1.27,1.27,0,0,0,1.23-.85,1,1,0,0,0,0-.3Z" fill="#2f2e41" data-secondary="true"/>
  <path d="M623.75,142c0,.52,0,1,0,1.38H623l-.05-.83h0a1.92,1.92,0,0,1-1.68.95c-.79,0-1.75-.44-1.75-2.22v-3h.92v2.81c0,1,.3,1.61,1.13,1.61a1.34,1.34,0,0,0,1.22-.84,1.36,1.36,0,0,0,.08-.47v-3.11h.92Z" fill="#2f2e41" data-secondary="true"/>
  <path d="M625.37,142.39a2.37,2.37,0,0,0,1.21.36c.67,0,1-.33,1-.75s-.27-.68-1-.93c-.91-.33-1.34-.83-1.34-1.43a1.56,1.56,0,0,1,1.75-1.49,2.67,2.67,0,0,1,1.25.31l-.23.67a2.05,2.05,0,0,0-1-.29c-.54,0-.85.31-.85.69s.31.61,1,.86c.88.33,1.33.77,1.33,1.53s-.7,1.52-1.9,1.52a2.86,2.86,0,0,1-1.42-.35Z" fill="#2f2e41" data-secondary="true"/>
  <path d="M630.36,141a1.62,1.62,0,0,0,1.74,1.75,3.25,3.25,0,0,0,1.4-.26l.16.66a4,4,0,0,1-1.69.32,2.36,2.36,0,0,1-2.49-2.56,2.46,2.46,0,0,1,2.38-2.73,2.14,2.14,0,0,1,2.09,2.39,3.91,3.91,0,0,1,0,.43Zm2.7-.66a1.31,1.31,0,0,0-1.27-1.5,1.53,1.53,0,0,0-1.42,1.5Z" fill="#2f2e41" data-secondary="true"/>
  <path d="M635.3,139.85c0-.6,0-1.12,0-1.59h.81l0,1h0a1.52,1.52,0,0,1,1.4-1.11,1.12,1.12,0,0,1,.27,0v.87a1.51,1.51,0,0,0-.32,0,1.28,1.28,0,0,0-1.23,1.18,2.74,2.74,0,0,0,0,.43v2.7h-.92Z" fill="#2f2e41" data-secondary="true"/>
  <path d="M639,139.64c0-.53,0-1,0-1.38h.81l.06.84h0a1.85,1.85,0,0,1,1.67-.95c.7,0,1.79.42,1.79,2.16v3h-.92v-2.92c0-.82-.3-1.5-1.17-1.5a1.31,1.31,0,0,0-1.24,1,1.33,1.33,0,0,0-.06.42v3.05H639Z" fill="#2f2e41" data-secondary="true"/>
  <path d="M647.81,143.33l-.08-.64h0a1.89,1.89,0,0,1-1.55.76A1.45,1.45,0,0,1,644.6,142c0-1.22,1.09-1.89,3-1.88V140a1,1,0,0,0-1.15-1.17,2.52,2.52,0,0,0-1.32.38l-.21-.61a3.15,3.15,0,0,1,1.66-.45c1.55,0,1.93,1.06,1.93,2.07v1.9a7.44,7.44,0,0,0,.08,1.21Zm-.14-2.59c-1,0-2.15.16-2.15,1.15a.82.82,0,0,0,.87.88,1.27,1.27,0,0,0,1.23-.85,1,1,0,0,0,0-.3Z" fill="#2f2e41" data-secondary="true"/>
  <path d="M650.26,139.64c0-.53,0-1,0-1.38H651l0,.82h0a1.76,1.76,0,0,1,1.59-.93,1.5,1.5,0,0,1,1.44,1h0a2.14,2.14,0,0,1,.56-.65,1.69,1.69,0,0,1,1.12-.36c.67,0,1.67.44,1.67,2.2v3h-.9v-2.87c0-1-.36-1.56-1.1-1.56a1.2,1.2,0,0,0-1.09.84,1.59,1.59,0,0,0-.07.46v3.13h-.9v-3c0-.81-.36-1.4-1.06-1.4a1.26,1.26,0,0,0-1.14.92,1.37,1.37,0,0,0-.07.45v3.06h-.9Z" fill="#2f2e41" data-secondary="true"/>
  <path d="M659.71,141a1.62,1.62,0,0,0,1.74,1.75,3.25,3.25,0,0,0,1.4-.26l.16.66a4.06,4.06,0,0,1-1.69.32,2.36,2.36,0,0,1-2.49-2.56,2.46,2.46,0,0,1,2.38-2.73,2.14,2.14,0,0,1,2.09,2.39,3.91,3.91,0,0,1,0,.43Zm2.7-.66a1.31,1.31,0,0,0-1.28-1.5,1.52,1.52,0,0,0-1.41,1.5Z" fill="#2f2e41" data-secondary="true"/>
  <path d="M393.39,155.9l-.08-.64h0a1.91,1.91,0,0,1-1.55.75,1.45,1.45,0,0,1-1.55-1.45c0-1.23,1.09-1.9,3.05-1.89v-.1a1.05,1.05,0,0,0-1.15-1.18,2.52,2.52,0,0,0-1.32.38l-.21-.61a3.15,3.15,0,0,1,1.66-.45c1.55,0,1.93,1.06,1.93,2.08v1.89a7.57,7.57,0,0,0,.08,1.22Zm-.14-2.59c-1,0-2.15.16-2.15,1.14a.82.82,0,0,0,.87.88,1.27,1.27,0,0,0,1.23-.85,1,1,0,0,0,.05-.29Z" fill="#2f2e41" data-secondary="true"/>
  <path d="M395.84,152.2c0-.52,0-.95,0-1.37h.82l.05.84h0a1.88,1.88,0,0,1,1.68-1c.7,0,1.79.42,1.79,2.16v3h-.92V153c0-.81-.31-1.49-1.17-1.49a1.32,1.32,0,0,0-1.24.94,1.35,1.35,0,0,0-.06.43v3.05h-.92Z" fill="#2f2e41" data-secondary="true"/>
  <path d="M406.23,148.46v6.13c0,.45,0,1,0,1.31h-.82l-.05-.88h0a1.87,1.87,0,0,1-1.72,1,2.31,2.31,0,0,1-2.17-2.57,2.43,2.43,0,0,1,2.27-2.73,1.69,1.69,0,0,1,1.53.78h0v-3Zm-.92,4.43a1.78,1.78,0,0,0,0-.39,1.36,1.36,0,0,0-1.33-1.06c-.95,0-1.52.83-1.52,1.95s.5,1.88,1.5,1.88a1.39,1.39,0,0,0,1.35-1.1,1.7,1.7,0,0,0,0-.4Z" fill="#2f2e41" data-secondary="true"/>
  <path d="M410.4,152.48c0-.65,0-1.17,0-1.65h.82l.05.87h0a2,2,0,0,1,1.8-1,2.3,2.3,0,0,1,2.14,2.58c0,1.82-1.11,2.72-2.3,2.72a1.77,1.77,0,0,1-1.56-.8h0V158h-.91Zm.91,1.35a2.22,2.22,0,0,0,0,.38,1.42,1.42,0,0,0,1.38,1.08c1,0,1.54-.8,1.54-2s-.53-1.88-1.5-1.88a1.48,1.48,0,0,0-1.4,1.14,1.51,1.51,0,0,0-.06.37Z" fill="#2f2e41" data-secondary="true"/>
  <path d="M419.37,155.9l-.07-.64h0a1.92,1.92,0,0,1-1.55.75,1.44,1.44,0,0,1-1.55-1.45c0-1.23,1.09-1.9,3.05-1.89v-.1a1.05,1.05,0,0,0-1.16-1.18,2.48,2.48,0,0,0-1.31.38l-.21-.61a3.12,3.12,0,0,1,1.66-.45c1.55,0,1.93,1.06,1.93,2.08v1.89a7.57,7.57,0,0,0,.08,1.22Zm-.13-2.59c-1,0-2.15.16-2.15,1.14a.82.82,0,0,0,.87.88,1.25,1.25,0,0,0,1.22-.85.75.75,0,0,0,.06-.29Z" fill="#2f2e41" data-secondary="true"/>
  <path d="M421.7,155a2.37,2.37,0,0,0,1.21.37c.67,0,1-.34,1-.75s-.26-.68-.95-.94c-.91-.32-1.34-.82-1.34-1.43a1.56,1.56,0,0,1,1.75-1.49,2.49,2.49,0,0,1,1.25.32l-.23.67a2,2,0,0,0-1-.3c-.54,0-.85.32-.85.7s.31.6,1,.85c.88.34,1.33.78,1.33,1.53s-.69,1.52-1.9,1.52a2.86,2.86,0,0,1-1.42-.35Z" fill="#2f2e41" data-secondary="true"/>
  <path d="M426.05,155a2.44,2.44,0,0,0,1.22.37c.67,0,1-.34,1-.75s-.26-.68-.94-.94c-.91-.32-1.34-.82-1.34-1.43a1.56,1.56,0,0,1,1.75-1.49A2.48,2.48,0,0,1,429,151l-.23.67a1.91,1.91,0,0,0-1-.3c-.55,0-.85.32-.85.7s.3.6,1,.85c.88.34,1.33.78,1.33,1.53s-.69,1.52-1.89,1.52a2.9,2.9,0,0,1-1.43-.35Z" fill="#2f2e41" data-secondary="true"/>
  <path d="M430.9,150.83l.67,2.57c.15.57.28,1.09.38,1.62h0c.12-.52.28-1.06.45-1.61l.83-2.58H434l.79,2.53c.18.61.33,1.14.45,1.66h0a15.91,15.91,0,0,1,.38-1.65l.73-2.54h.91l-1.64,5.07h-.83l-.78-2.42c-.18-.57-.32-1.07-.45-1.67h0a13.73,13.73,0,0,1-.46,1.68l-.82,2.41h-.83L430,150.83Z" fill="#2f2e41" data-secondary="true"/>
  <path d="M442.93,153.32a2.48,2.48,0,0,1-2.52,2.69A2.41,2.41,0,0,1,438,153.4a2.48,2.48,0,0,1,2.51-2.69A2.4,2.4,0,0,1,442.93,153.32Zm-4,.05c0,1.11.64,1.95,1.54,1.95s1.54-.83,1.54-2c0-.86-.43-1.95-1.52-1.95S438.91,152.41,438.91,153.37Z" fill="#2f2e41" data-secondary="true"/>
  <path d="M444.3,152.41c0-.6,0-1.11,0-1.58h.81l0,1h0a1.52,1.52,0,0,1,1.4-1.11,1.12,1.12,0,0,1,.27,0v.87a1.51,1.51,0,0,0-.32,0,1.28,1.28,0,0,0-1.23,1.19,1.79,1.79,0,0,0-.05.42v2.71h-.91Z" fill="#2f2e41" data-secondary="true"/>
  <path d="M452.21,148.46v6.13c0,.45,0,1,0,1.31h-.83l0-.88h0a1.88,1.88,0,0,1-1.73,1,2.31,2.31,0,0,1-2.16-2.57,2.43,2.43,0,0,1,2.27-2.73,1.7,1.7,0,0,1,1.53.78h0v-3Zm-.92,4.43a1.78,1.78,0,0,0,0-.39,1.36,1.36,0,0,0-1.33-1.06c-1,0-1.52.83-1.52,1.95s.5,1.88,1.49,1.88a1.4,1.4,0,0,0,1.36-1.1,1.7,1.7,0,0,0,0-.4Z" fill="#2f2e41" data-secondary="true"/>
  <path d="M453.62,155.35a.62.62,0,0,1,.63-.66.66.66,0,1,1-.63.66Z" fill="#2f2e41" data-secondary="true"/>
  <path d="M417,191v4.17c0,1.58.7,2.25,1.64,2.25s1.72-.69,1.72-2.25V191h.92v4.11c0,2.17-1.14,3.06-2.67,3.06s-2.53-.83-2.53-3V191Z" fill="#2f2e41" data-secondary="true"/>
  <path d="M422.85,197.14a2.44,2.44,0,0,0,1.22.36c.67,0,1-.33,1-.75s-.26-.68-.94-.93c-.91-.33-1.34-.83-1.34-1.43a1.56,1.56,0,0,1,1.75-1.49,2.67,2.67,0,0,1,1.25.31l-.24.67a2,2,0,0,0-1-.29c-.55,0-.85.31-.85.69s.3.61,1,.86c.88.33,1.33.77,1.33,1.53s-.69,1.52-1.89,1.52a2.9,2.9,0,0,1-1.43-.35Z" fill="#2f2e41" data-secondary="true"/>
  <path d="M427.85,195.72a1.62,1.62,0,0,0,1.74,1.75,3.28,3.28,0,0,0,1.4-.26l.16.66a4.06,4.06,0,0,1-1.69.32,2.36,2.36,0,0,1-2.49-2.56,2.46,2.46,0,0,1,2.38-2.73,2.14,2.14,0,0,1,2.09,2.39,3.91,3.91,0,0,1,0,.43Zm2.7-.66a1.31,1.31,0,0,0-1.28-1.5,1.52,1.52,0,0,0-1.41,1.5Z" fill="#2f2e41" data-secondary="true"/>
  <path d="M432.79,194.6c0-.6,0-1.12,0-1.59h.81l0,1h0a1.52,1.52,0,0,1,1.4-1.11,1,1,0,0,1,.26,0v.87a1.42,1.42,0,0,0-.31,0,1.3,1.3,0,0,0-1.24,1.18,2.74,2.74,0,0,0,0,.43v2.7h-.91Z" fill="#2f2e41" data-secondary="true"/>
  <path d="M438.89,198.08V191h1l2.26,3.57a20.07,20.07,0,0,1,1.27,2.29h0c-.09-.94-.11-1.8-.11-2.9V191h.86v7.05h-.92L441,194.5a23.39,23.39,0,0,1-1.32-2.35h0c.05.89.07,1.73.07,2.91v3Z" fill="#2f2e41" data-secondary="true"/>
  <path d="M448.76,198.08l-.08-.64h0a1.87,1.87,0,0,1-1.55.76,1.44,1.44,0,0,1-1.54-1.46c0-1.22,1.08-1.89,3-1.88v-.11a1,1,0,0,0-1.15-1.17,2.55,2.55,0,0,0-1.32.38l-.21-.61a3.18,3.18,0,0,1,1.67-.45c1.55,0,1.92,1.06,1.92,2.07v1.9a6.41,6.41,0,0,0,.09,1.21Zm-.14-2.59c-1,0-2.14.16-2.14,1.15a.82.82,0,0,0,.87.88,1.27,1.27,0,0,0,1.22-.85,1,1,0,0,0,.05-.3Z" fill="#2f2e41" data-secondary="true"/>
  <path d="M451.21,194.39c0-.53,0-1,0-1.38h.8l0,.82h0a1.74,1.74,0,0,1,1.59-.93,1.5,1.5,0,0,1,1.43,1h0a2,2,0,0,1,.57-.65,1.67,1.67,0,0,1,1.12-.36c.67,0,1.66.44,1.66,2.2v3h-.9v-2.87c0-1-.35-1.56-1.1-1.56a1.2,1.2,0,0,0-1.09.84,1.59,1.59,0,0,0-.07.46v3.13h-.9v-3c0-.81-.36-1.4-1.06-1.4a1.27,1.27,0,0,0-1.14.92,1.37,1.37,0,0,0-.07.45v3.06h-.9Z" fill="#2f2e41" data-secondary="true"/>
  <path d="M460.66,195.72a1.62,1.62,0,0,0,1.74,1.75,3.25,3.25,0,0,0,1.4-.26l.16.66a4,4,0,0,1-1.69.32,2.36,2.36,0,0,1-2.49-2.56,2.46,2.46,0,0,1,2.38-2.73,2.14,2.14,0,0,1,2.09,2.39,3.91,3.91,0,0,1,0,.43Zm2.7-.66a1.31,1.31,0,0,0-1.27-1.5,1.53,1.53,0,0,0-1.42,1.5Z" fill="#2f2e41" data-secondary="true"/>
  <path d="M465.39,193.85a.62.62,0,1,1,1.24,0,.62.62,0,1,1-1.24,0Zm0,3.7a.62.62,0,1,1,.61.65A.62.62,0,0,1,465.39,197.55Z" fill="#2f2e41" data-secondary="true"/>
  <path d="M380.51,112.65l-.73,2.22h-.95l2.4-7.06h1.1l2.41,7.06h-1l-.75-2.22Zm2.31-.71-.69-2c-.16-.46-.26-.87-.37-1.28h0c-.1.42-.22.85-.35,1.28l-.69,2Z" fill="#2f2e41" data-secondary="true"/>
  <path d="M390.28,113.48c0,.53,0,1,0,1.39h-.82l-.05-.83h0a1.91,1.91,0,0,1-1.68.94c-.79,0-1.74-.44-1.74-2.22v-3h.92v2.81c0,1,.29,1.61,1.13,1.61a1.33,1.33,0,0,0,1.21-.84,1.4,1.4,0,0,0,.08-.47V109.8h.93Z" fill="#2f2e41" data-secondary="true"/>
  <path d="M393.34,108.35v1.45h1.31v.7h-1.31v2.73c0,.63.17,1,.69,1a1.69,1.69,0,0,0,.53-.07l0,.7a2.34,2.34,0,0,1-.81.12,1.26,1.26,0,0,1-1-.39,1.87,1.87,0,0,1-.36-1.31V110.5h-.78v-.7h.78v-1.21Z" fill="#2f2e41" data-secondary="true"/>
  <path d="M396.11,107.44H397v3.16h0a1.65,1.65,0,0,1,.66-.65,1.87,1.87,0,0,1,.94-.26c.68,0,1.77.41,1.77,2.16v3h-.92V112c0-.82-.3-1.51-1.17-1.51a1.33,1.33,0,0,0-1.24.92,1.17,1.17,0,0,0-.06.44v3.06h-.92Z" fill="#2f2e41" data-secondary="true"/>
  <path d="M402.34,111.17c0-.52,0-1,0-1.37h.81l.06.84h0a1.85,1.85,0,0,1,1.67-1c.7,0,1.79.41,1.79,2.15v3h-.92V112c0-.82-.3-1.5-1.17-1.5a1.32,1.32,0,0,0-1.24.94,1.4,1.4,0,0,0-.06.43v3.05h-.92Z" fill="#2f2e41" data-secondary="true"/>
  <path d="M409.64,108.35v1.45H411v.7h-1.32v2.73c0,.63.17,1,.69,1a1.64,1.64,0,0,0,.53-.07l0,.7a2.34,2.34,0,0,1-.81.12,1.26,1.26,0,0,1-1-.39,1.87,1.87,0,0,1-.35-1.31V110.5H408v-.7h.79v-1.21Z" fill="#2f2e41" data-secondary="true"/>
  <path d="M413.44,108.38a.57.57,0,0,1-1.14,0,.56.56,0,0,1,.57-.58A.55.55,0,0,1,413.44,108.38Zm-1,6.49V109.8h.92v5.07Z" fill="#2f2e41" data-secondary="true"/>
  <path d="M418.89,114.68a3.46,3.46,0,0,1-1.45.29,2.41,2.41,0,0,1-2.53-2.58,2.58,2.58,0,0,1,2.73-2.69,3,3,0,0,1,1.27.26l-.21.71a2.07,2.07,0,0,0-1.06-.24,1.91,1.91,0,0,0,0,3.81,2.75,2.75,0,0,0,1.14-.25Z" fill="#2f2e41" data-secondary="true"/>
  <path d="M423.2,114.87l-.08-.64h0a1.88,1.88,0,0,1-1.55.75,1.45,1.45,0,0,1-1.55-1.45c0-1.23,1.09-1.9,3.05-1.89v-.1a1,1,0,0,0-1.15-1.17,2.51,2.51,0,0,0-1.32.37l-.21-.6a3.08,3.08,0,0,1,1.66-.45c1.55,0,1.93,1,1.93,2.07v1.89a7.57,7.57,0,0,0,.08,1.22Zm-.14-2.59c-1,0-2.15.16-2.15,1.14a.82.82,0,0,0,.87.88,1.27,1.27,0,0,0,1.23-.85,1,1,0,0,0,.05-.29Z" fill="#2f2e41" data-secondary="true"/>
  <path d="M426.92,108.35v1.45h1.32v.7h-1.32v2.73c0,.63.18,1,.69,1a1.71,1.71,0,0,0,.54-.07l0,.7a2.36,2.36,0,0,1-.82.12,1.24,1.24,0,0,1-1-.39,1.87,1.87,0,0,1-.36-1.31V110.5h-.78v-.7H426v-1.21Z" fill="#2f2e41" data-secondary="true"/>
  <path d="M430.72,108.38a.53.53,0,0,1-.58.56.55.55,0,0,1-.56-.56.56.56,0,0,1,.58-.58A.54.54,0,0,1,430.72,108.38Zm-1,6.49V109.8h.92v5.07Z" fill="#2f2e41" data-secondary="true"/>
  <path d="M437.15,112.29a2.47,2.47,0,0,1-2.52,2.69,2.41,2.41,0,0,1-2.43-2.6,2.47,2.47,0,0,1,2.51-2.69A2.39,2.39,0,0,1,437.15,112.29Zm-4,0c0,1.11.64,2,1.54,2s1.54-.83,1.54-2c0-.86-.43-1.94-1.52-1.94S433.13,111.38,433.13,112.34Z" fill="#2f2e41" data-secondary="true"/>
  <path d="M438.73,111.17c0-.52,0-1,0-1.37h.82l.05.84h0a1.87,1.87,0,0,1,1.68-1c.7,0,1.79.41,1.79,2.15v3h-.92V112c0-.82-.31-1.5-1.18-1.5a1.31,1.31,0,0,0-1.23.94,1.4,1.4,0,0,0-.06.43v3.05h-.93Z" fill="#2f2e41" data-secondary="true"/>
  <path d="M447.64,107.91a9,9,0,0,1,1.74-.15,2.91,2.91,0,0,1,2,.57,1.76,1.76,0,0,1,.56,1.34,1.87,1.87,0,0,1-1.33,1.81v0a1.76,1.76,0,0,1,1,1.42,11.42,11.42,0,0,0,.54,1.94h-.94a9,9,0,0,1-.47-1.69c-.21-1-.59-1.34-1.42-1.37h-.85v3.06h-.91Zm.91,3.21h.93c1,0,1.59-.53,1.59-1.34s-.66-1.31-1.62-1.32a3.87,3.87,0,0,0-.9.08Z" fill="#2f2e41" data-secondary="true"/>
  <path d="M454.21,112.5a1.62,1.62,0,0,0,1.74,1.76,3.41,3.41,0,0,0,1.4-.26l.16.66a4.27,4.27,0,0,1-1.69.31,2.35,2.35,0,0,1-2.49-2.55,2.46,2.46,0,0,1,2.38-2.73,2.14,2.14,0,0,1,2.09,2.38,3.55,3.55,0,0,1,0,.43Zm2.7-.66a1.32,1.32,0,0,0-1.28-1.5,1.52,1.52,0,0,0-1.41,1.5Z" fill="#2f2e41" data-secondary="true"/>
  <path d="M462.82,114.08h0a1.82,1.82,0,0,1-1.66.9,2.3,2.3,0,0,1-2.14-2.56,2.42,2.42,0,0,1,2.29-2.73,1.67,1.67,0,0,1,1.56.87h0l0-.76h.87c0,.43,0,.87,0,1.39v5.75h-.92Zm0-2.23a1.31,1.31,0,0,0-.05-.39,1.33,1.33,0,0,0-1.31-1c-1,0-1.53.8-1.53,1.94s.48,1.89,1.49,1.89a1.37,1.37,0,0,0,1.32-1,1.27,1.27,0,0,0,.08-.44Z" fill="#2f2e41" data-secondary="true"/>
  <path d="M469.92,113.48c0,.53,0,1,0,1.39h-.82l-.05-.83h0a1.91,1.91,0,0,1-1.68.94c-.79,0-1.75-.44-1.75-2.22v-3h.93v2.81c0,1,.29,1.61,1.13,1.61a1.34,1.34,0,0,0,1.21-.84,1.4,1.4,0,0,0,.08-.47V109.8h.93Z" fill="#2f2e41" data-secondary="true"/>
  <path d="M472.89,108.38a.57.57,0,0,1-1.14,0,.56.56,0,0,1,.57-.58A.55.55,0,0,1,472.89,108.38Zm-1,6.49V109.8h.92v5.07Z" fill="#2f2e41" data-secondary="true"/>
  <path d="M474.73,111.38c0-.6,0-1.11,0-1.58h.81l0,1h0a1.51,1.51,0,0,1,1.4-1.1,1,1,0,0,1,.26,0v.87a.93.93,0,0,0-.31,0,1.31,1.31,0,0,0-1.24,1.19,2.63,2.63,0,0,0,0,.43v2.7h-.91Z" fill="#2f2e41" data-secondary="true"/>
  <path d="M479,112.5a1.62,1.62,0,0,0,1.74,1.76,3.41,3.41,0,0,0,1.4-.26l.16.66a4.21,4.21,0,0,1-1.68.31,2.36,2.36,0,0,1-2.5-2.55,2.46,2.46,0,0,1,2.38-2.73,2.14,2.14,0,0,1,2.09,2.38,3.55,3.55,0,0,1,0,.43Zm2.7-.66a1.32,1.32,0,0,0-1.27-1.5,1.53,1.53,0,0,0-1.42,1.5Z" fill="#2f2e41" data-secondary="true"/>
  <path d="M488.51,107.44v6.12c0,.45,0,1,0,1.31h-.83l0-.88h0a1.88,1.88,0,0,1-1.73,1,2.3,2.3,0,0,1-2.16-2.57,2.42,2.42,0,0,1,2.27-2.72,1.7,1.7,0,0,1,1.53.77h0v-3Zm-.92,4.42a1.64,1.64,0,0,0,0-.38,1.36,1.36,0,0,0-1.33-1.07c-1,0-1.52.83-1.52,2s.5,1.88,1.5,1.88a1.39,1.39,0,0,0,1.35-1.1,1.7,1.7,0,0,0,0-.4Z" fill="#2f2e41" data-secondary="true"/>
  <path d="M416.09,216.42a11.1,11.1,0,0,1,1.75-.13,2.94,2.94,0,0,1,2,.58,1.93,1.93,0,0,1,.61,1.48,2.07,2.07,0,0,1-.54,1.51,2.94,2.94,0,0,1-2.16.77,3.27,3.27,0,0,1-.73-.06v2.83h-.91Zm.91,3.41a3.22,3.22,0,0,0,.76.07c1.09,0,1.76-.54,1.76-1.51s-.66-1.38-1.66-1.38a4,4,0,0,0-.86.07Z" fill="#2f2e41" data-secondary="true"/>
  <path d="M424.37,223.4l-.07-.64h0a1.92,1.92,0,0,1-1.55.75,1.44,1.44,0,0,1-1.55-1.45c0-1.23,1.09-1.9,3.05-1.89v-.1a1.05,1.05,0,0,0-1.16-1.18,2.48,2.48,0,0,0-1.31.38l-.21-.61a3.12,3.12,0,0,1,1.66-.45c1.55,0,1.93,1.06,1.93,2.08v1.89a7.57,7.57,0,0,0,.08,1.22Zm-.13-2.59c-1,0-2.15.16-2.15,1.14a.82.82,0,0,0,.87.88,1.25,1.25,0,0,0,1.22-.85.75.75,0,0,0,.06-.29Z" fill="#2f2e41" data-secondary="true"/>
  <path d="M426.7,222.45a2.37,2.37,0,0,0,1.21.37c.67,0,1-.34,1-.75s-.27-.68-.95-.94c-.91-.32-1.34-.82-1.34-1.43a1.56,1.56,0,0,1,1.75-1.49,2.55,2.55,0,0,1,1.25.32l-.23.67a2,2,0,0,0-1-.3c-.54,0-.85.32-.85.7s.31.6,1,.85c.88.34,1.33.78,1.33,1.53s-.7,1.52-1.9,1.52a2.86,2.86,0,0,1-1.42-.35Z" fill="#2f2e41" data-secondary="true"/>
  <path d="M431.05,222.45a2.44,2.44,0,0,0,1.22.37c.67,0,1-.34,1-.75s-.26-.68-.94-.94c-.91-.32-1.34-.82-1.34-1.43a1.56,1.56,0,0,1,1.75-1.49,2.48,2.48,0,0,1,1.24.32l-.23.67a1.91,1.91,0,0,0-1-.3c-.55,0-.85.32-.85.7s.3.6,1,.85c.88.34,1.33.78,1.33,1.53s-.69,1.52-1.89,1.52a2.9,2.9,0,0,1-1.43-.35Z" fill="#2f2e41" data-secondary="true"/>
  <path d="M435.9,218.33l.67,2.57c.15.57.28,1.09.38,1.62h0c.12-.52.28-1.06.45-1.61l.83-2.58H439l.79,2.53c.18.61.33,1.14.45,1.66h0a15.91,15.91,0,0,1,.38-1.65l.73-2.54h.91l-1.64,5.07h-.83l-.78-2.42c-.18-.57-.32-1.07-.45-1.67h0a13.73,13.73,0,0,1-.46,1.68l-.82,2.41h-.83L435,218.33Z" fill="#2f2e41" data-secondary="true"/>
  <path d="M447.93,220.82a2.48,2.48,0,0,1-2.52,2.69A2.41,2.41,0,0,1,443,220.9a2.48,2.48,0,0,1,2.51-2.69A2.4,2.4,0,0,1,447.93,220.82Zm-4,.05c0,1.11.64,1.95,1.54,1.95s1.54-.83,1.54-2c0-.86-.43-1.95-1.52-1.95S443.91,219.91,443.91,220.87Z" fill="#2f2e41" data-secondary="true"/>
  <path d="M449.3,219.91c0-.6,0-1.11,0-1.58h.81l0,1h0a1.52,1.52,0,0,1,1.4-1.11,1.12,1.12,0,0,1,.27,0v.87a1.51,1.51,0,0,0-.32,0,1.28,1.28,0,0,0-1.23,1.19,1.79,1.79,0,0,0-.05.42v2.71h-.91Z" fill="#2f2e41" data-secondary="true"/>
  <path d="M457.21,216v6.13c0,.45,0,1,0,1.31h-.83l0-.88h0a1.88,1.88,0,0,1-1.73,1,2.31,2.31,0,0,1-2.16-2.57,2.43,2.43,0,0,1,2.27-2.73,1.71,1.71,0,0,1,1.53.78h0v-3Zm-.92,4.43a1.44,1.44,0,0,0-1.38-1.45c-1,0-1.51.83-1.51,1.95s.5,1.88,1.49,1.88a1.38,1.38,0,0,0,1.35-1.1,1.29,1.29,0,0,0,.05-.4Z" fill="#2f2e41" data-secondary="true"/>
  <path d="M458.73,219.17a.62.62,0,1,1,1.24,0,.62.62,0,1,1-1.24,0Zm0,3.69a.62.62,0,1,1,1.24,0,.62.62,0,1,1-1.24,0Z" fill="#2f2e41" data-secondary="true"/>
  <path d="M541.45,269.38h.91v6.29h3v.77h-3.92Z" fill="#2f2e41" data-secondary="true"/>
  <path d="M551,273.86a2.47,2.47,0,0,1-2.52,2.69,2.41,2.41,0,0,1-2.43-2.6,2.47,2.47,0,0,1,2.51-2.69A2.39,2.39,0,0,1,551,273.86Zm-4,.06c0,1.1.64,1.94,1.54,1.94s1.54-.82,1.54-2c0-.85-.43-1.94-1.52-1.94S547,273,547,273.92Z" fill="#2f2e41" data-secondary="true"/>
  <path d="M556.74,271.37c0,.37,0,.78,0,1.39v2.95A2.92,2.92,0,0,1,556,278a2.7,2.7,0,0,1-1.84.61,3.31,3.31,0,0,1-1.69-.42l.23-.7a2.88,2.88,0,0,0,1.49.39c.94,0,1.63-.49,1.63-1.77v-.56h0a1.81,1.81,0,0,1-1.61.85A2.27,2.27,0,0,1,552,274a2.43,2.43,0,0,1,2.28-2.69,1.68,1.68,0,0,1,1.58.88h0l.05-.77Zm-1,2a1.38,1.38,0,0,0,0-.42,1.33,1.33,0,0,0-1.29-1c-.88,0-1.51.74-1.51,1.91,0,1,.5,1.83,1.5,1.83a1.36,1.36,0,0,0,1.28-1,1.61,1.61,0,0,0,.07-.49Z" fill="#2f2e41" data-secondary="true"/>
  <path d="M561.81,269.38v7.06h-.91v-7.06Z" fill="#2f2e41" data-secondary="true"/>
  <path d="M563.68,272.74c0-.52,0-.95,0-1.37h.82l0,.84h0a1.87,1.87,0,0,1,1.68-.95c.7,0,1.79.42,1.79,2.15v3h-.92v-2.92c0-.82-.31-1.5-1.18-1.5a1.31,1.31,0,0,0-1.23.94,1.4,1.4,0,0,0-.06.43v3.05h-.93Z" fill="#2f2e41" data-secondary="true"/>
  <path d="M626.34,276.49a4.49,4.49,0,0,1-1.86.34,3.3,3.3,0,0,1-3.49-3.57,3.52,3.52,0,0,1,3.69-3.71,3.89,3.89,0,0,1,1.67.31l-.22.75a3.29,3.29,0,0,0-1.42-.3,2.63,2.63,0,0,0-2.76,2.92,2.57,2.57,0,0,0,2.71,2.83,3.63,3.63,0,0,0,1.49-.29Z" fill="#2f2e41" data-secondary="true"/>
  <path d="M630.39,276.72l-.07-.64h0a1.9,1.9,0,0,1-1.55.76,1.45,1.45,0,0,1-1.55-1.46c0-1.22,1.09-1.89,3-1.88v-.11a1,1,0,0,0-1.15-1.17,2.48,2.48,0,0,0-1.31.38l-.21-.61a3.12,3.12,0,0,1,1.66-.45c1.55,0,1.93,1.06,1.93,2.07v1.9a7.36,7.36,0,0,0,.08,1.21Zm-.13-2.58c-1,0-2.15.15-2.15,1.14a.82.82,0,0,0,.87.88,1.25,1.25,0,0,0,1.22-.85,1.07,1.07,0,0,0,.06-.29Z" fill="#2f2e41" data-secondary="true"/>
  <path d="M632.84,273c0-.53,0-1,0-1.38h.82l0,.84h0a1.87,1.87,0,0,1,1.68-.95c.7,0,1.79.42,1.79,2.16v3h-.93V273.8c0-.82-.3-1.5-1.17-1.5a1.29,1.29,0,0,0-1.23.95,1.11,1.11,0,0,0-.07.43v3h-.92Z" fill="#2f2e41" data-secondary="true"/>
  <path d="M642.47,276.53a3.28,3.28,0,0,1-1.45.3,2.41,2.41,0,0,1-2.52-2.59,2.57,2.57,0,0,1,2.72-2.69,3.25,3.25,0,0,1,1.28.26l-.21.71a2.22,2.22,0,0,0-1.07-.24,1.76,1.76,0,0,0-1.79,1.92,1.73,1.73,0,0,0,1.76,1.89,2.55,2.55,0,0,0,1.13-.25Z" fill="#2f2e41" data-secondary="true"/>
  <path d="M644.21,274.36a1.62,1.62,0,0,0,1.74,1.75,3.25,3.25,0,0,0,1.4-.26l.16.66a4,4,0,0,1-1.68.32,2.36,2.36,0,0,1-2.5-2.56,2.46,2.46,0,0,1,2.38-2.73,2.14,2.14,0,0,1,2.09,2.39,3.91,3.91,0,0,1,0,.43Zm2.7-.66a1.31,1.31,0,0,0-1.27-1.5,1.54,1.54,0,0,0-1.42,1.5Z" fill="#2f2e41" data-secondary="true"/>
  <path d="M649.16,269.29h.92v7.43h-.92Z" fill="#2f2e41" data-secondary="true"/>
  <path d="M484.78,195.08l-.74,2.21h-.94l2.4-7h1.1l2.41,7h-1l-.75-2.21Zm2.31-.72-.69-2c-.16-.46-.26-.88-.37-1.28h0c-.1.41-.22.84-.35,1.27l-.69,2Z" fill="#2f2e41" data-secondary="true"/>
  <path d="M494.47,189.86V196c0,.45,0,1,0,1.3h-.82l-.05-.87h0a1.87,1.87,0,0,1-1.72,1,2.31,2.31,0,0,1-2.17-2.58,2.43,2.43,0,0,1,2.27-2.72,1.69,1.69,0,0,1,1.53.78h0v-3Zm-.92,4.43a1.78,1.78,0,0,0,0-.39,1.36,1.36,0,0,0-1.33-1.06c-.95,0-1.52.83-1.52,1.95s.5,1.88,1.5,1.88a1.39,1.39,0,0,0,1.35-1.1,1.7,1.7,0,0,0,0-.4Z" fill="#2f2e41" data-secondary="true"/>
  <path d="M496.21,193.6c0-.52,0-.95,0-1.37h.8l0,.81h0a1.74,1.74,0,0,1,1.59-.93,1.49,1.49,0,0,1,1.43,1h0a2.2,2.2,0,0,1,.57-.66,1.73,1.73,0,0,1,1.12-.36c.67,0,1.66.44,1.66,2.2v3h-.9v-2.86c0-1-.35-1.56-1.1-1.56a1.17,1.17,0,0,0-1.08.83,1.34,1.34,0,0,0-.08.46v3.13h-.9v-3c0-.81-.35-1.39-1.05-1.39a1.27,1.27,0,0,0-1.15.92,1.29,1.29,0,0,0-.07.45v3h-.9Z" fill="#2f2e41" data-secondary="true"/>
  <path d="M506.18,190.8a.57.57,0,1,1-1.14,0,.56.56,0,0,1,.57-.57A.55.55,0,0,1,506.18,190.8Zm-1,6.49v-5.06h.92v5.06Z" fill="#2f2e41" data-secondary="true"/>
  <path d="M507.81,193.6c0-.52,0-.95,0-1.37h.82l.05.84h0a1.86,1.86,0,0,1,1.68-1c.7,0,1.79.42,1.79,2.16v3h-.93v-2.92c0-.81-.3-1.49-1.17-1.49a1.29,1.29,0,0,0-1.23.94,1.11,1.11,0,0,0-.07.43v3h-.92Z" fill="#2f2e41" data-secondary="true"/>
  <path d="M485.89,218.66l-1,1.31v0l1.58-.21v.71l-1.58-.18v0l1,1.25-.66.38-.63-1.47h0l-.68,1.48-.6-.38,1-1.27v0l-1.55.19v-.71l1.54.2v0l-1-1.28.64-.36.65,1.45h0l.64-1.46Z" fill="#2f2e41" data-secondary="true"/>
  <path d="M490.44,218.66l-1,1.31v0l1.58-.21v.71l-1.58-.18v0l1,1.25-.66.38-.62-1.47h0l-.68,1.48-.59-.38,1-1.27v0l-1.55.19v-.71l1.54.2v0l-1-1.28.64-.36.64,1.45h0l.63-1.46Z" fill="#2f2e41" data-secondary="true"/>
  <path d="M495,218.66,494,220v0l1.58-.21v.71l-1.58-.18v0l1,1.25-.66.38-.63-1.47h0L493,222l-.6-.38,1-1.27v0l-1.55.19v-.71l1.54.2v0l-1-1.28.64-.36.65,1.45h0l.64-1.46Z" fill="#2f2e41" data-secondary="true"/>
  <path d="M499.55,218.66l-1,1.31v0l1.58-.21v.71l-1.58-.18v0l1,1.25-.66.38-.63-1.47h0l-.68,1.48-.59-.38,1-1.27v0l-1.55.19v-.71l1.54.2v0l-1-1.28.64-.36.64,1.45h0l.63-1.46Z" fill="#2f2e41" data-secondary="true"/>
  <path d="M504.11,218.66l-1,1.31v0l1.58-.21v.71l-1.58-.18v0l1,1.25-.66.38-.63-1.47h0l-.68,1.48-.6-.38,1-1.27v0l-1.55.19v-.71l1.54.2v0l-1-1.28.64-.36.65,1.45h0l.64-1.46Z" fill="#2f2e41" data-secondary="true"/>
  <path d="M508.66,218.66l-1,1.31v0l1.58-.21v.71l-1.58-.18v0l1,1.25L508,222l-.63-1.47h0l-.68,1.48-.59-.38,1-1.27v0l-1.55.19v-.71l1.54.2v0l-1-1.28.63-.36.65,1.45h0l.64-1.46Z" fill="#2f2e41" data-secondary="true"/>
  <path d="M696.06,524.59h75a0,0,0,0,1,0,0v45.67a37.51,37.51,0,0,1-37.51,37.51h0a37.51,37.51,0,0,1-37.51-37.51V524.59A0,0,0,0,1,696.06,524.59Z" fill="#7867e4" data-primary="true"/>
  <path d="M733.57,608.28a38.05,38.05,0,0,1-38-38V524.09h76v46.18A38.05,38.05,0,0,1,733.57,608.28Zm-37-83.19v45.18a37,37,0,1,0,74,0V525.09Z" fill="#2f2e41" data-secondary="true"/>
  <path d="M771,537.14H696.18a.5.5,0,0,1-.5-.5.5.5,0,0,1,.5-.5H771a.5.5,0,0,1,.5.5A.5.5,0,0,1,771,537.14Z" fill="#2f2e41" data-secondary="true"/>
  <path d="M783.85,394.06a75.66,75.66,0,0,0-30.2,6.38,1.8,1.8,0,0,1-2-.3c-1.49-1.5,1.14-4.47,1.14-4.47,7.54-9.78,29-4.17,29-4.17-.81-8.34-4.49-20.05-4.49-20.05-10.59,2.09-12.83-.48-12.83-.48-5.14-5.13,9.14-13.79,9.14-13.79-1.77-5-7.86-19.57-7.86-19.57C748.89,344.19,730,361.13,730,361.13c4.36,8.54,5,13.81,4.82,16.73a2.83,2.83,0,0,1-5.06,1.53c-3-3.93-3.52-13.25-3.52-13.25-11,12.21-19.41,28.8-19.41,28.8,11,9,15.33,14.7,16.77,18.23a4,4,0,0,1-4.57,5.46c-8.07-1.86-15.64-15.86-15.64-15.86-2.51,21.13,6,33.73,15,41.05a43.3,43.3,0,0,0,32.05,8.93C801.29,447,783.85,394.06,783.85,394.06Zm-10.22,36.65c-3.55,7.51-12.73,9.78-16.51,10.41a1.6,1.6,0,0,1-1.84-1.84,10.17,10.17,0,0,1,1.27-3.14,18.85,18.85,0,0,1,5-5.47c4.47-3.37,8.14-3.59,10.42-3.2A2.29,2.29,0,0,1,773.63,430.71Z" fill="#7867e4" data-primary="true"/>
  <path d="M745.37,453.53a43.51,43.51,0,0,1-27.25-9.32c-8.38-6.76-17.82-19.44-15.21-41.5l.19-1.57.75,1.39c.07.14,7.56,13.82,15.32,15.61a3.36,3.36,0,0,0,3.39-1.15,3.53,3.53,0,0,0,.6-3.64c-1.25-3.05-5.15-8.66-16.63-18l-.31-.26.19-.36c.08-.16,8.6-16.79,19.48-28.91l.8-.89.07,1.2c0,.09.54,9.22,3.42,13a2.32,2.32,0,0,0,4.16-1.27c.21-2.85-.46-8-4.77-16.46l-.17-.35.28-.25c.19-.17,19.14-17.08,35.87-23.61L766,337l.19.45c.06.15,6.12,14.66,7.87,19.59l.13.39-.34.21c-.1.05-9.43,5.77-10,10.4a3,3,0,0,0,.94,2.61s2.37,2.31,12.38.34l.44-.09.13.43c0,.12,3.72,11.86,4.52,20.15l.06.71-.69-.18c-.21-.05-21.26-5.42-28.5,4,0,.06-2.31,2.68-1.18,3.82a1.32,1.32,0,0,0,1.48.2,75.76,75.76,0,0,1,30.41-6.43h.36l.12.35c.08.25,8.14,25.32-3.08,42.82-6,9.34-16.32,14.89-30.71,16.51A44.92,44.92,0,0,1,745.37,453.53Zm-41.63-49.18c-2,20.67,7,32.64,15,39.08a43,43,0,0,0,31.68,8.82c14.07-1.59,24.15-7,30-16.06,10.26-16,4-38.57,3.08-41.62a74.56,74.56,0,0,0-29.62,6.33,2.31,2.31,0,0,1-2.61-.41c-1.8-1.81,1-5,1.11-5.15,6.95-9,25-5.39,28.84-4.5-.82-7.22-3.63-16.71-4.27-18.81-10.19,1.92-12.61-.45-12.86-.73a4,4,0,0,1-1.2-3.41c.55-4.62,8.33-9.79,10.11-10.92-1.7-4.69-6.51-16.28-7.52-18.71-15.33,6.14-32.41,20.87-34.82,23,4.25,8.44,4.91,13.7,4.7,16.65a3.3,3.3,0,0,1-2.36,3,3.25,3.25,0,0,1-3.59-1.15c-2.46-3.2-3.29-9.67-3.54-12.35-9.54,10.93-17.1,25-18.37,27.46,9.16,7.5,14.75,13.62,16.61,18.17a4.54,4.54,0,0,1-.77,4.66,4.37,4.37,0,0,1-4.38,1.48C712.16,417.55,705.89,408,703.74,404.35Zm53.12,37.29a2.17,2.17,0,0,1-1.51-.63,2,2,0,0,1-.56-1.82,10.35,10.35,0,0,1,1.33-3.3,19.17,19.17,0,0,1,5.11-5.62c4.6-3.47,8.42-3.7,10.81-3.29a2.78,2.78,0,0,1,2,3.94h0c-3.65,7.72-13,10.05-16.88,10.69A2,2,0,0,1,756.86,441.64Zm13.39-13.81c-2.15,0-5,.69-8.42,3.24a18.26,18.26,0,0,0-4.85,5.32,9.65,9.65,0,0,0-1.21,3,1,1,0,0,0,.3.93,1.06,1.06,0,0,0,1,.32c3.7-.61,12.69-2.84,16.14-10.13h0a1.78,1.78,0,0,0,0-1.59,1.76,1.76,0,0,0-1.28-.93A8.81,8.81,0,0,0,770.25,427.83Z" fill="#2f2e41" data-secondary="true"/>
  <path d="M723,524.27a.5.5,0,0,1-.49-.37l-18.6-72a.5.5,0,0,1,1-.25l18.6,72a.5.5,0,0,1-.36.61Z" fill="#2f2e41" data-secondary="true"/>
  <path d="M739.35,524.79l-.12,0a.5.5,0,0,1-.36-.61l13-51.89a.5.5,0,0,1,.61-.36.49.49,0,0,1,.36.6l-13,51.9A.51.51,0,0,1,739.35,524.79Z" fill="#2f2e41" data-secondary="true"/>
  <path d="M743.2,420.09a.51.51,0,0,1-.46-.29l-14.49-32.87a.49.49,0,0,1,.26-.66.48.48,0,0,1,.65.25l14.5,32.87a.5.5,0,0,1-.26.66A.48.48,0,0,1,743.2,420.09Z" fill="#2f2e41" data-secondary="true"/>
  <path d="M742.14,428.22a.49.49,0,0,1-.44-.26.51.51,0,0,1,.2-.68l34.28-18.38a.5.5,0,0,1,.68.21.51.51,0,0,1-.2.68l-34.29,18.37A.38.38,0,0,1,742.14,428.22Z" fill="#2f2e41" data-secondary="true"/>
  <path d="M732.91,524.23h0a.5.5,0,0,1-.5-.51c1.27-112.55,32.24-185.5,32.55-186.22a.5.5,0,1,1,.92.4c-.32.72-31.2,73.5-32.47,185.84A.49.49,0,0,1,732.91,524.23Z" fill="#2f2e41" data-secondary="true"/>
</svg>